<svg width="188" height="66" viewBox="0 0 188 66" fill="none" xmlns="http://www.w3.org/2000/svg">
<path d="M24.7035 8.01223H3.59793V20.648H0V4.41431H24.7035V8.01223ZM0 45.3515H3.59793V57.9873H24.7035V61.5852H0V45.3515Z" fill="white"/>
<path d="M141.709 8.0123H120.603V4.41437H145.306V20.6481H141.709V8.0123V8.0123ZM120.603 57.9873H141.709V45.3516H145.306V61.5853H120.603V57.9873V57.9873Z" fill="white"/>
<path d="M109.228 27.1446V30.3095C110.213 27.883 112.323 26.6171 114.995 26.6171C118.441 26.6171 120.762 28.6919 120.762 33.1931V44.7275H115.487V34.1426C115.487 31.9623 114.468 30.9425 112.674 30.9425C110.775 30.9425 109.544 32.2084 109.544 34.67V44.7275H104.27V27.1446H109.228Z" fill="white"/>
<path d="M102.577 39.2768C102.014 42.8989 98.7088 45.255 94.2075 45.255C88.9678 45.255 85.2051 42.1604 85.2051 35.936C85.2051 29.6765 88.9678 26.6171 94.2075 26.6171C99.1308 26.6171 102.858 29.7117 102.858 35.936C102.858 36.3932 102.858 36.8152 102.823 37.2372H90.2338C90.4096 39.9801 91.9569 41.2812 94.2075 41.2812C95.9658 41.2812 96.9153 40.5076 97.3021 39.2768H102.577ZM94.2075 30.5556C92.1328 30.5556 90.6206 31.7161 90.3041 34.0722H97.7945C97.5131 31.7161 96.1417 30.5556 94.2075 30.5556Z" fill="white"/>
<path d="M24.7764 44.68V21.3196H29.7154V40.6079H39.7302V44.68H24.7764Z" fill="white"/>
<path d="M46.312 37.7999C46.3121 39.9096 47.261 40.8945 48.9487 40.8947C50.7773 40.8947 51.973 39.6637 51.9731 37.2726V36.5275C53.3237 36.7718 54.8235 37.2206 55.5532 37.9718C56.6133 39.0637 57.1017 41.8423 57.2466 43.3859H57.2485V44.7277H52.2544V41.7032C51.2698 44.024 49.1953 45.2549 46.6284 45.255C43.2877 45.255 41.0366 43.18 41.0366 38.7491V27.1447H46.312V37.7999ZM57.2485 28.4874H57.2456C57.0999 30.0324 56.612 32.8056 55.5532 33.8956C54.8234 34.6467 53.3235 35.0933 51.9731 35.337V27.1447H57.2485V28.4874Z" fill="white"/>
<path d="M63.2734 44.7273H57.999V43.3767C58.145 41.8315 58.6333 39.0613 59.6914 37.9714C60.4214 37.2199 61.9224 36.7713 63.2734 36.5271V44.7273ZM78.8525 26.6169C82.0877 26.617 84.3027 28.6217 84.3027 33.0173V44.7273H79.0283V33.9666C79.0283 31.8918 78.1488 30.9421 76.5664 30.9421C74.8786 30.9422 73.7882 32.1732 73.7881 34.4939V44.7273H68.5137V33.9666C68.5136 31.8918 67.6342 30.9421 66.0518 30.9421C64.364 30.9422 63.2735 32.1732 63.2734 34.4939V35.3367C61.9225 35.093 60.4214 34.6467 59.6914 33.8953C58.7649 32.9413 58.2757 30.6986 58.0703 29.1179L57.999 28.4871V27.1443H62.957V30.1335C63.9065 27.8126 65.8763 26.6169 68.373 26.6169C70.7642 26.617 72.5926 27.7424 73.3662 30.0984C74.3509 27.8126 76.3558 26.6169 78.8525 26.6169Z" fill="white"/>
<path d="M124.051 14.4124C124.169 16.0997 124.754 19.8114 126.144 21.2014C127.448 22.5056 130.781 23.036 132.573 23.1643L132.91 23.1848C131.234 23.2663 127.535 23.7778 126.144 25.1692C124.752 26.5606 124.169 30.2782 124.051 31.9631L124.057 31.9651H124.045L124.051 31.9631C123.933 30.2783 123.349 26.5607 121.958 25.1692C120.567 23.7778 116.867 23.2664 115.191 23.1848C116.867 23.1033 120.567 22.5927 121.958 21.2014C123.348 19.8114 123.932 16.0997 124.051 14.4124Z" fill="#D4A0FF"/>
<path d="M124.051 14.4124C124.169 16.0997 124.754 19.8114 126.144 21.2014C127.448 22.5056 130.781 23.036 132.573 23.1643L132.91 23.1848C131.234 23.2663 127.535 23.7778 126.144 25.1692C124.752 26.5606 124.169 30.2782 124.051 31.9631L124.057 31.9651H124.045L124.051 31.9631C123.933 30.2783 123.349 26.5607 121.958 25.1692C120.567 23.7778 116.867 23.2664 115.191 23.1848C116.867 23.1033 120.567 22.5927 121.958 21.2014C123.348 19.8114 123.932 16.0997 124.051 14.4124Z" fill="#D4A0FF"/>
<rect width="57.1925" height="21.6937" transform="translate(154.315 61.5378) rotate(-90)" fill="#F9F1FF"/>
<path d="M170.162 55.4991L170.162 57.5791L159.404 53.792L159.404 51.3864L170.162 47.594L170.162 49.674L167.509 50.567L167.509 54.6114L170.162 55.4991ZM165.944 54.0862L165.944 51.0922L161.61 52.5472L161.61 52.6312L165.944 54.0862ZM170.162 46.473L159.404 46.473L159.404 44.5243L168.528 44.5243L168.528 39.7865L170.162 39.7865L170.162 46.473ZM170.162 38.391L159.404 38.391L159.404 34.357C159.404 31.8831 160.912 30.5647 162.966 30.5647C165.035 30.5647 166.527 31.8988 166.527 34.3833L166.527 36.4423L170.162 36.4423L170.162 38.391ZM164.925 36.4423L164.925 34.6459C164.925 33.1962 164.111 32.5501 162.966 32.5501C161.821 32.5501 161.033 33.1962 161.033 34.6564L161.033 36.4423L164.925 36.4423ZM170.162 29.1679L159.404 29.1679L159.404 27.2192L163.958 27.2192L163.958 22.2345L159.404 22.2345L159.404 20.2806L170.162 20.2806L170.162 22.2345L165.592 22.2345L165.592 27.2192L170.162 27.2192L170.162 29.1679ZM170.162 17.0756L170.162 19.1556L159.404 15.3685L159.404 12.9628L170.162 9.17048L170.162 11.2505L167.509 12.1434L167.509 16.1879L170.162 17.0756ZM165.944 15.6626L165.944 12.6687L161.61 14.1236L161.61 14.2077L165.944 15.6626Z" fill="#D4A0FF"/>
</svg>
