<svg width="16" height="16" viewBox="0 0 16 16" fill="none" xmlns="http://www.w3.org/2000/svg">
<g clip-path="url(#clip0_436_164)">
<path d="M2.0002 7.99992L1.33354 5.33325H2.53354C2.6002 5.33325 2.73354 5.39992 2.8002 5.46659L3.86687 6.66659H7.06687L4.93354 1.79992C4.8002 1.59992 4.93354 1.33325 5.2002 1.33325L6.33354 1.33325C6.53354 1.33325 6.73354 1.46659 6.86687 1.59992L10.2002 6.66659H13.3335C14.0669 6.66659 14.6669 7.26659 14.6669 7.99992C14.6669 8.73325 14.0669 9.33325 13.3335 9.33325H10.2002L6.86687 14.3999C6.73354 14.5999 6.53354 14.6666 6.33354 14.6666H5.2002C4.93354 14.6666 4.8002 14.3999 4.86687 14.1999L7.0002 9.33325H3.8002L2.73354 10.5333C2.66687 10.5999 2.6002 10.6666 2.46687 10.6666H1.33354L2.0002 7.99992Z" stroke="black" stroke-width="1.3" stroke-linecap="round" stroke-linejoin="round"/>
</g>
<defs>
<clipPath id="clip0_436_164">
<rect width="16" height="16" fill="white"/>
</clipPath>
</defs>
</svg>
