<svg width="17" height="16" viewBox="0 0 17 16" fill="none" xmlns="http://www.w3.org/2000/svg">
<path d="M8.19701 4.96711C8.19676 5.05867 8.1228 5.1326 8.03129 5.13305C7.93935 5.13305 7.86384 5.05825 7.86366 4.96635C7.864 4.87461 7.93891 4.8001 8.03071 4.80006C8.12261 4.80023 8.19701 4.87517 8.19701 4.96711ZM4.34861 11.7968C4.27058 11.8453 4.16728 11.8219 4.11858 11.744C4.07006 11.666 4.09422 11.5632 4.17218 11.5145C4.25032 11.4661 4.35319 11.49 4.40172 11.5681C4.4498 11.646 4.4261 11.7481 4.34861 11.7968ZM8.19683 5.63344C8.19659 5.72517 8.12237 5.80005 8.03062 5.80022C7.93865 5.80013 7.86348 5.72468 7.86348 5.63268C7.86382 5.54092 7.93954 5.46688 8.03138 5.46688C8.1229 5.46737 8.19666 5.54184 8.19683 5.63344ZM4.91355 11.4452C4.83556 11.4934 4.73345 11.4699 4.68485 11.3921C4.63635 11.3141 4.65975 11.2108 4.7376 11.1621C4.81578 11.1135 4.9194 11.138 4.96799 11.2162C5.01624 11.2943 4.9916 11.3967 4.91355 11.4452ZM8.19665 6.29977C8.19665 6.39154 8.12295 6.46659 8.03129 6.46704C7.93936 6.46704 7.86386 6.39223 7.86366 6.30035C7.86367 6.2083 7.93915 6.13321 8.0312 6.13321C8.12283 6.1336 8.19653 6.20807 8.19665 6.29977ZM5.47982 11.0933C5.40183 11.1416 5.29975 11.1179 5.25112 11.0402C5.20254 10.9621 5.22654 10.8593 5.30472 10.8107C5.38289 10.7622 5.48568 10.7861 5.53426 10.8643C5.58247 10.9424 5.55785 11.0448 5.47982 11.0933ZM8.19682 6.96743C8.1964 7.0589 8.1226 7.13302 8.03111 7.13337C7.93917 7.13337 7.86365 7.05857 7.86348 6.96667C7.86364 6.87485 7.9387 6.80052 8.03053 6.80038C8.12243 6.80056 8.19682 6.87549 8.19682 6.96743ZM6.04658 10.7406C5.96854 10.7891 5.86609 10.7662 5.81739 10.6883C5.76885 10.6102 5.79295 10.5074 5.87098 10.4588C5.94914 10.4104 6.05199 10.4343 6.10053 10.5124C6.14867 10.5904 6.12431 10.692 6.04658 10.7406ZM8.19713 7.63292C8.19713 7.72481 8.12276 7.79945 8.03092 7.7997C7.93888 7.7997 7.8633 7.72505 7.8633 7.633C7.86347 7.5411 7.93925 7.4672 8.03119 7.4672C8.12277 7.46759 8.19692 7.54129 8.19713 7.63292ZM6.61236 10.3895C6.53437 10.4378 6.43231 10.4142 6.38366 10.3364C6.33513 10.2583 6.35844 10.1551 6.43641 10.1064C6.51459 10.0578 6.61821 10.0823 6.6668 10.1605C6.715 10.2386 6.69038 10.341 6.61236 10.3895ZM7.17863 10.0376C7.10063 10.0859 6.99858 10.0623 6.94993 9.98453C6.90135 9.90636 6.92537 9.80358 7.00352 9.75499C7.08169 9.70653 7.18451 9.73045 7.23307 9.80858C7.28128 9.8867 7.25666 9.98914 7.17863 10.0376ZM8.19646 8.30009C8.1964 8.39188 8.12282 8.46702 8.0311 8.46736C7.93905 8.46736 7.86396 8.39187 7.86396 8.29982C7.86406 8.20785 7.93902 8.13353 8.03101 8.13353C8.1228 8.13383 8.19645 8.20823 8.19646 8.30009ZM8.92719 10.0774C8.88117 10.1571 8.77879 10.1845 8.69907 10.1385C8.6196 10.0924 8.59283 9.99051 8.6388 9.91089C8.68483 9.83149 8.786 9.80441 8.86558 9.85013C8.9452 9.8961 8.973 9.99772 8.92719 10.0774ZM9.50398 10.4104C9.45799 10.4901 9.35639 10.5179 9.27671 10.472C9.19711 10.426 9.16959 10.3236 9.21558 10.2439C9.26166 10.1645 9.36361 10.1378 9.44321 10.1836C9.52269 10.2296 9.54973 10.3308 9.50398 10.4104ZM10.0816 10.7439C10.0356 10.8236 9.93321 10.851 9.85349 10.805C9.77421 10.7588 9.7473 10.6569 9.79322 10.5774C9.83921 10.4981 9.94046 10.4711 10.02 10.5166C10.0996 10.5626 10.1274 10.6642 10.0816 10.7439ZM10.6592 11.0774C10.6132 11.1571 10.5108 11.1845 10.4311 11.1385C10.3517 11.0924 10.3249 10.9905 10.3708 10.9109C10.4169 10.8315 10.518 10.8044 10.5976 10.8501C10.6773 10.8961 10.7051 10.9977 10.6592 11.0774ZM11.236 11.4104C11.19 11.4901 11.0884 11.5179 11.0088 11.472C10.9292 11.426 10.9016 11.3236 10.9476 11.2439C10.9937 11.1645 11.0957 11.1378 11.1753 11.1836C11.2547 11.2296 11.2818 11.3308 11.236 11.4104ZM11.8137 11.7439C11.7676 11.8236 11.6653 11.851 11.5855 11.805C11.5063 11.7588 11.4794 11.6569 11.5253 11.5774C11.5713 11.4981 11.6725 11.4711 11.752 11.5166C11.8317 11.5626 11.8595 11.6642 11.8137 11.7439Z" fill="black"/>
<path d="M3.36371 6.99999L3.07302 6.41861C2.85281 6.52872 2.71371 6.75379 2.71371 6.99999H3.36371ZM12.3637 6.99999H13.0137C13.0137 6.76087 12.8824 6.54105 12.6719 6.42768L12.3637 6.99999ZM8.03038 14.6667L7.73969 15.248C7.92889 15.3426 8.15229 15.3393 8.33854 15.239L8.03038 14.6667ZM8.01261 1.34933L8.47224 0.889726L8.01263 0.430089L7.553 0.889712L8.01261 1.34933ZM6.17003 2.27266C5.91618 2.5265 5.91618 2.93806 6.17002 3.1919C6.42386 3.44574 6.83541 3.44575 7.08926 3.19191L6.62964 2.73229L6.17003 2.27266ZM8.93587 3.19189C9.1897 3.44574 9.60126 3.44575 9.85511 3.19191C10.109 2.93808 10.109 2.52652 9.85513 2.27268L9.3955 2.73229L8.93587 3.19189ZM0.774719 13.9657L0.139974 13.8257L-2.09808e-05 14.4604L0.634737 14.6004L0.774719 13.9657ZM2.54465 15.0216C2.89521 15.0989 3.24207 14.8774 3.31938 14.5268C3.39669 14.1763 3.17517 13.8294 2.82461 13.7521L2.68463 14.3869L2.54465 15.0216ZM1.83068 12.1958C1.90799 11.8452 1.68649 11.4984 1.33593 11.4211C0.985365 11.3438 0.638503 11.5653 0.561187 11.9158L1.19593 12.0558L1.83068 12.1958ZM14.9468 13.9657L15.0867 14.6004L15.7215 14.4604L15.5815 13.8257L14.9468 13.9657ZM12.8969 13.7521C12.5463 13.8294 12.3248 14.1763 12.4021 14.5268C12.4794 14.8774 12.8263 15.0989 13.1768 15.0216L13.0369 14.3869L12.8969 13.7521ZM15.1603 11.9158C15.083 11.5653 14.7361 11.3438 14.3856 11.4211C14.035 11.4984 13.8135 11.8452 13.8908 12.1958L14.5256 12.0558L15.1603 11.9158ZM3.36371 12.3333H4.01371V6.99999H3.36371H2.71371V12.3333H3.36371ZM3.36371 6.99999L3.6544 7.58137L8.32107 5.24803L8.03038 4.66666L7.73969 4.08528L3.07302 6.41861L3.36371 6.99999ZM8.03038 4.66666L7.72221 5.23896L12.0555 7.5723L12.3637 6.99999L12.6719 6.42768L8.33854 4.09435L8.03038 4.66666ZM12.3637 6.99999H11.7137V12.3333H12.3637H13.0137V6.99999H12.3637ZM12.3637 12.3333L12.0555 11.761L7.72221 14.0943L8.03038 14.6667L8.33854 15.239L12.6719 12.9056L12.3637 12.3333ZM8.03038 14.6667L8.32107 14.0853L3.6544 11.7519L3.36371 12.3333L3.07302 12.9147L7.73969 15.248L8.03038 14.6667ZM12.3637 6.99999L12.0373 6.4379L7.72876 8.93997L8.05518 9.50207L8.3816 10.0642L12.6901 7.56208L12.3637 6.99999ZM8.05518 9.50207H7.40518V14.6738H8.05518H8.70518V9.50207H8.05518ZM8.05518 9.50207L8.36106 8.92853L3.66959 6.42646L3.36371 6.99999L3.05783 7.57352L7.7493 10.0756L8.05518 9.50207ZM8.03038 4.66666L8.68037 4.66318L8.6626 1.34585L8.01261 1.34933L7.36262 1.35282L7.38039 4.67014L8.03038 4.66666ZM6.62964 2.73229L7.08926 3.19191L8.47223 1.80896L8.01261 1.34933L7.553 0.889712L6.17003 2.27266L6.62964 2.73229ZM8.01261 1.34933L7.55298 1.80894L8.93587 3.19189L9.3955 2.73229L9.85513 2.27268L8.47224 0.889726L8.01261 1.34933ZM3.36371 12.3333L3.01705 11.7835L0.428052 13.4158L0.774719 13.9657L1.12139 14.5155L3.71038 12.8832L3.36371 12.3333ZM2.68463 14.3869L2.82461 13.7521L0.914702 13.3309L0.774719 13.9657L0.634737 14.6004L2.54465 15.0216L2.68463 14.3869ZM0.774719 13.9657L1.40946 14.1056L1.83068 12.1958L1.19593 12.0558L0.561187 11.9158L0.139974 13.8257L0.774719 13.9657ZM12.3637 12.3333L12.0165 12.8828L14.5995 14.5151L14.9468 13.9657L15.294 13.4162L12.7109 11.7838L12.3637 12.3333ZM13.0369 14.3869L13.1768 15.0216L15.0867 14.6004L14.9468 13.9657L14.8068 13.3309L12.8969 13.7521L13.0369 14.3869ZM14.9468 13.9657L15.5815 13.8257L15.1603 11.9158L14.5256 12.0558L13.8908 12.1958L14.312 14.1057L14.9468 13.9657Z" fill="black"/>
</svg>
