<svg width="17" height="16" viewBox="0 0 17 16" fill="none" xmlns="http://www.w3.org/2000/svg">
<path d="M8.19707 4.96711C8.19682 5.05867 8.12286 5.1326 8.03135 5.13305C7.93941 5.13305 7.8639 5.05825 7.86373 4.96635C7.86406 4.87461 7.93897 4.8001 8.03078 4.80006C8.12268 4.80023 8.19707 4.87517 8.19707 4.96711ZM4.34868 11.7968C4.27064 11.8453 4.16734 11.8219 4.11864 11.744C4.07012 11.666 4.09428 11.5632 4.17224 11.5145C4.25039 11.4661 4.35325 11.49 4.40178 11.5681C4.44986 11.646 4.42616 11.7481 4.34868 11.7968ZM8.19689 5.63344C8.19665 5.72517 8.12243 5.80005 8.03068 5.80022C7.93871 5.80013 7.86354 5.72468 7.86354 5.63268C7.86388 5.54092 7.9396 5.46688 8.03144 5.46688C8.12296 5.46737 8.19672 5.54184 8.19689 5.63344ZM4.91361 11.4452C4.83562 11.4934 4.73351 11.4699 4.68491 11.3921C4.63641 11.3141 4.65981 11.2108 4.73766 11.1621C4.81584 11.1135 4.91946 11.138 4.96805 11.2162C5.0163 11.2943 4.99166 11.3967 4.91361 11.4452ZM8.19671 6.29977C8.19671 6.39154 8.12302 6.46659 8.03135 6.46704C7.93942 6.46704 7.86392 6.39223 7.86372 6.30035C7.86373 6.2083 7.93922 6.13321 8.03126 6.13321C8.12289 6.1336 8.19659 6.20807 8.19671 6.29977ZM5.47988 11.0933C5.40189 11.1416 5.29981 11.1179 5.25118 11.0402C5.2026 10.9621 5.2266 10.8593 5.30478 10.8107C5.38295 10.7622 5.48575 10.7861 5.53432 10.8643C5.58253 10.9424 5.55791 11.0448 5.47988 11.0933ZM8.19688 6.96743C8.19646 7.0589 8.12266 7.13302 8.03117 7.13337C7.93923 7.13337 7.86372 7.05857 7.86354 6.96667C7.8637 6.87485 7.93876 6.80052 8.03059 6.80038C8.12249 6.80056 8.19688 6.87549 8.19688 6.96743ZM6.04664 10.7406C5.9686 10.7891 5.86615 10.7662 5.81745 10.6883C5.76891 10.6102 5.79301 10.5074 5.87105 10.4588C5.9492 10.4104 6.05205 10.4343 6.10059 10.5124C6.14873 10.5904 6.12437 10.692 6.04664 10.7406ZM8.19719 7.63292C8.19719 7.72481 8.12282 7.79945 8.03099 7.7997C7.93894 7.7997 7.86337 7.72505 7.86336 7.633C7.86353 7.5411 7.93931 7.4672 8.03125 7.4672C8.12283 7.46759 8.19698 7.54129 8.19719 7.63292ZM6.61242 10.3895C6.53443 10.4378 6.43237 10.4142 6.38372 10.3364C6.33519 10.2583 6.3585 10.1551 6.43647 10.1064C6.51465 10.0578 6.61827 10.0823 6.66686 10.1605C6.71506 10.2386 6.69044 10.341 6.61242 10.3895ZM7.17869 10.0376C7.10069 10.0859 6.99864 10.0623 6.94999 9.98453C6.90141 9.90636 6.92543 9.80358 7.00359 9.75499C7.08175 9.70653 7.18458 9.73045 7.23313 9.80858C7.28134 9.8867 7.25672 9.98914 7.17869 10.0376ZM8.19652 8.30009C8.19646 8.39188 8.12288 8.46702 8.03116 8.46736C7.93911 8.46736 7.86402 8.39187 7.86402 8.29982C7.86412 8.20785 7.93908 8.13353 8.03107 8.13353C8.12286 8.13383 8.19652 8.20823 8.19652 8.30009ZM8.92725 10.0774C8.88123 10.1571 8.77885 10.1845 8.69914 10.1385C8.61966 10.0924 8.59289 9.99051 8.63886 9.91089C8.68489 9.83149 8.78606 9.80441 8.86564 9.85013C8.94527 9.8961 8.97306 9.99772 8.92725 10.0774ZM9.50404 10.4104C9.45805 10.4901 9.35646 10.5179 9.27677 10.472C9.19717 10.426 9.16965 10.3236 9.21564 10.2439C9.26172 10.1645 9.36367 10.1378 9.44327 10.1836C9.52275 10.2296 9.54979 10.3308 9.50404 10.4104ZM10.0817 10.7439C10.0356 10.8236 9.93327 10.851 9.85355 10.805C9.77427 10.7588 9.74736 10.6569 9.79328 10.5774C9.83927 10.4981 9.94052 10.4711 10.0201 10.5166C10.0997 10.5626 10.1275 10.6642 10.0817 10.7439ZM10.6593 11.0774C10.6133 11.1571 10.5109 11.1845 10.4312 11.1385C10.3517 11.0924 10.3249 10.9905 10.3709 10.9109C10.4169 10.8315 10.5181 10.8044 10.5977 10.8501C10.6773 10.8961 10.7051 10.9977 10.6593 11.0774ZM11.2361 11.4104C11.1901 11.4901 11.0885 11.5179 11.0088 11.472C10.9292 11.426 10.9017 11.3236 10.9477 11.2439C10.9938 11.1645 11.0957 11.1378 11.1753 11.1836C11.2548 11.2296 11.2818 11.3308 11.2361 11.4104ZM11.8137 11.7439C11.7677 11.8236 11.6653 11.851 11.5856 11.805C11.5063 11.7588 11.4794 11.6569 11.5253 11.5774C11.5713 11.4981 11.6726 11.4711 11.7521 11.5166C11.8317 11.5626 11.8595 11.6642 11.8137 11.7439Z" fill="black"/>
<path d="M3.36377 6.99999L3.07308 6.41861C2.85287 6.52872 2.71377 6.75379 2.71377 6.99999H3.36377ZM12.3638 6.99999H13.0138C13.0138 6.76087 12.8825 6.54105 12.6719 6.42768L12.3638 6.99999ZM8.03044 14.6667L7.73975 15.248C7.92895 15.3426 8.15236 15.3393 8.33861 15.239L8.03044 14.6667ZM8.01267 1.34933L8.4723 0.889726L8.01269 0.430089L7.55306 0.889712L8.01267 1.34933ZM6.17009 2.27266C5.91624 2.5265 5.91624 2.93806 6.17008 3.1919C6.42392 3.44574 6.83548 3.44575 7.08932 3.19191L6.6297 2.73229L6.17009 2.27266ZM8.93593 3.19189C9.18976 3.44574 9.60132 3.44575 9.85517 3.19191C10.109 2.93808 10.109 2.52652 9.85519 2.27268L9.39556 2.73229L8.93593 3.19189ZM0.77478 13.9657L0.140035 13.8257L4.00543e-05 14.4604L0.634798 14.6004L0.77478 13.9657ZM2.54471 15.0216C2.89527 15.0989 3.24213 14.8774 3.31944 14.5268C3.39675 14.1763 3.17523 13.8294 2.82467 13.7521L2.68469 14.3869L2.54471 15.0216ZM1.83074 12.1958C1.90806 11.8452 1.68655 11.4984 1.33599 11.4211C0.985426 11.3438 0.638564 11.5653 0.561248 11.9158L1.19599 12.0558L1.83074 12.1958ZM14.9468 13.9657L15.0868 14.6004L15.7216 14.4604L15.5816 13.8257L14.9468 13.9657ZM12.8969 13.7521C12.5464 13.8294 12.3249 14.1763 12.4022 14.5268C12.4795 14.8774 12.8263 15.0989 13.1769 15.0216L13.0369 14.3869L12.8969 13.7521ZM15.1604 11.9158C15.083 11.5653 14.7362 11.3438 14.3856 11.4211C14.0351 11.4984 13.8136 11.8452 13.8909 12.1958L14.5256 12.0558L15.1604 11.9158ZM3.36377 12.3333H4.01377V6.99999H3.36377H2.71377V12.3333H3.36377ZM3.36377 6.99999L3.65446 7.58137L8.32113 5.24803L8.03044 4.66666L7.73975 4.08528L3.07308 6.41861L3.36377 6.99999ZM8.03044 4.66666L7.72228 5.23896L12.0556 7.5723L12.3638 6.99999L12.6719 6.42768L8.33861 4.09435L8.03044 4.66666ZM12.3638 6.99999H11.7138V12.3333H12.3638H13.0138V6.99999H12.3638ZM12.3638 12.3333L12.0556 11.761L7.72228 14.0943L8.03044 14.6667L8.33861 15.239L12.6719 12.9056L12.3638 12.3333ZM8.03044 14.6667L8.32113 14.0853L3.65446 11.7519L3.36377 12.3333L3.07308 12.9147L7.73975 15.248L8.03044 14.6667ZM12.3638 6.99999L12.0374 6.4379L7.72882 8.93997L8.05524 9.50207L8.38166 10.0642L12.6902 7.56208L12.3638 6.99999ZM8.05524 9.50207H7.40524V14.6738H8.05524H8.70524V9.50207H8.05524ZM8.05524 9.50207L8.36112 8.92853L3.66965 6.42646L3.36377 6.99999L3.05789 7.57352L7.74936 10.0756L8.05524 9.50207ZM8.03044 4.66666L8.68043 4.66318L8.66266 1.34585L8.01267 1.34933L7.36268 1.35282L7.38045 4.67014L8.03044 4.66666ZM6.6297 2.73229L7.08932 3.19191L8.47229 1.80896L8.01267 1.34933L7.55306 0.889712L6.17009 2.27266L6.6297 2.73229ZM8.01267 1.34933L7.55304 1.80894L8.93593 3.19189L9.39556 2.73229L9.85519 2.27268L8.4723 0.889726L8.01267 1.34933ZM3.36377 12.3333L3.01711 11.7835L0.428113 13.4158L0.77478 13.9657L1.12145 14.5155L3.71044 12.8832L3.36377 12.3333ZM2.68469 14.3869L2.82467 13.7521L0.914763 13.3309L0.77478 13.9657L0.634798 14.6004L2.54471 15.0216L2.68469 14.3869ZM0.77478 13.9657L1.40953 14.1056L1.83074 12.1958L1.19599 12.0558L0.561248 11.9158L0.140035 13.8257L0.77478 13.9657ZM12.3638 12.3333L12.0165 12.8828L14.5996 14.5151L14.9468 13.9657L15.2941 13.4162L12.711 11.7838L12.3638 12.3333ZM13.0369 14.3869L13.1769 15.0216L15.0868 14.6004L14.9468 13.9657L14.8068 13.3309L12.8969 13.7521L13.0369 14.3869ZM14.9468 13.9657L15.5816 13.8257L15.1604 11.9158L14.5256 12.0558L13.8909 12.1958L14.3121 14.1057L14.9468 13.9657Z" fill="black"/>
</svg>
