<svg width="16" height="16" viewBox="0 0 16 16" fill="none" xmlns="http://www.w3.org/2000/svg">
<path d="M4.66534 9.17622H3.33145C2.59476 9.17622 1.99756 8.57902 1.99756 7.84233V3.84066C1.99756 3.10398 2.59476 2.50677 3.33145 2.50677H12.6687C13.4054 2.50677 14.0026 3.10398 14.0026 3.84066V7.84233C14.0026 8.57902 13.4054 9.17622 12.6687 9.17622H11.3348M6.99964 11.8776H9.00048M11.3348 5.8415H4.66534V12.8625C4.66522 13.1231 4.76868 13.373 4.95292 13.5572C5.13717 13.7415 5.3871 13.8449 5.64766 13.8448H10.3525C10.613 13.8449 10.8629 13.7415 11.0472 13.5572C11.2314 13.373 11.3349 13.1231 11.3348 12.8625V5.8415ZM6.99976 8.87638C6.99976 8.32387 7.44766 7.87596 8.00017 7.87596C8.55269 7.87596 9.00059 8.32387 9.00059 8.87638C9.00059 9.4289 8.55269 9.8768 8.00017 9.8768C7.44776 9.87656 6.99999 9.4288 6.99976 8.87638Z" stroke="black" stroke-width="1.3" stroke-linecap="round" stroke-linejoin="round"/>
</svg>
