<svg width="16" height="16" viewBox="0 0 16 16" fill="none" xmlns="http://www.w3.org/2000/svg">
<path d="M5.5 12H12.1667M5.5 12C4.85567 12 4.33333 12.5224 4.33333 13.1667C4.33333 13.811 4.85567 14.3334 5.5 14.3334C6.14433 14.3334 6.66667 13.811 6.66667 13.1667C6.66667 12.5224 6.14433 12 5.5 12ZM12.1667 12C11.5223 12 11 12.5224 11 13.1667C11 13.811 11.5223 14.3334 12.1667 14.3334C12.811 14.3334 13.3333 13.811 13.3333 13.1667C13.3333 12.5224 12.811 12 12.1667 12ZM3.76188 4.66669H5.33329M8.66667 4.00002V7.33335M10 6.00002L8.66667 7.33335L7.33333 6.00002M5.33333 12L3.33333 2.66669H2M12 4.66669H13.333C13.5401 4.66669 13.7355 4.76295 13.8617 4.92718C13.9878 5.09141 14.0305 5.30496 13.9771 5.50508L12.9109 9.50509C12.8331 9.79695 12.5687 10 12.2667 10H4.90479" stroke="black" stroke-width="1.3" stroke-linecap="round" stroke-linejoin="round"/>
</svg>
