<svg width="16" height="16" viewBox="0 0 16 16" fill="none" xmlns="http://www.w3.org/2000/svg">
<path d="M10.3525 13.3789C9.91075 14.2306 9.02217 14.8164 8 14.8164C6.97234 14.8163 6.0862 14.2304 5.64648 13.3789H10.3525Z" fill="black"/>
<path d="M7.9873 1.66406C10.5512 1.66372 12.6351 3.73932 12.6367 6.31055L12.6484 8.89551L13.5928 9.84082L13.6787 9.93555C13.8656 10.1643 13.9749 10.4582 13.9766 10.7598V10.7666C13.9765 10.7688 13.9756 10.7713 13.9756 10.7734C13.9684 11.4929 13.3813 12.0771 12.6602 12.0771H10.6504V12.0791H5.35059V12.0771H3.32715C2.59064 12.0771 2.00983 11.4811 2.00977 10.7598C2.00986 10.414 2.14069 10.0801 2.39355 9.82715L3.33691 8.87793V6.31348C3.33691 3.74132 5.41521 1.66433 7.9873 1.66406Z" fill="black"/>
</svg>
