<svg width="16" height="16" viewBox="0 0 16 16" fill="none" xmlns="http://www.w3.org/2000/svg">
<path d="M9.28923 9.57561L8.25818 8.70501V10.3317L9.28923 9.57561Z" fill="black"/>
<path d="M8.25818 5.66826V7.29495L9.28923 6.42434L8.25818 5.66826Z" fill="black"/>
<path fill-rule="evenodd" clip-rule="evenodd" d="M7.99998 14.4C11.5345 14.4 14.4 11.5346 14.4 7.99998C14.4 4.46536 11.5345 1.59998 7.99998 1.59998C4.46541 1.59998 1.59998 4.46536 1.59998 7.99998C1.59998 11.5346 4.46541 14.4 7.99998 14.4ZM8.0783 4.44517C7.9447 4.34709 7.76716 4.33254 7.61931 4.4075C7.47146 4.48245 7.3781 4.63418 7.3781 4.79998V6.81011L6.28376 5.88604C6.09822 5.72925 5.82068 5.75266 5.66384 5.93833C5.50701 6.12397 5.53044 6.40159 5.71619 6.55837L7.3781 7.96189V8.03806L5.71619 9.44158C5.53044 9.59836 5.50701 9.87598 5.66384 10.0616C5.82068 10.2473 6.09822 10.2707 6.28376 10.1139L7.3781 9.18984V11.2C7.3781 11.3658 7.47146 11.5175 7.61931 11.5925C7.76716 11.6674 7.9447 11.6529 8.0783 11.5548L10.2601 9.95479C10.3689 9.87505 10.4351 9.74983 10.4396 9.61504C10.4427 9.52671 10.4191 9.44067 10.3734 9.36736C10.3494 9.32881 10.3193 9.29377 10.2838 9.26379L8.78728 7.99998L10.2838 6.73616C10.3869 6.64915 10.4443 6.51968 10.4396 6.38491C10.4351 6.25012 10.3689 6.1249 10.2601 6.04517L8.0783 4.44517Z" fill="black"/>
</svg>
