<svg width="16" height="16" viewBox="0 0 16 16" fill="none" xmlns="http://www.w3.org/2000/svg">
<path d="M13.0996 1.66211C14.2041 1.66219 15.0996 2.55759 15.0996 3.66211V12.3213C15.0996 13.4258 14.2041 14.3212 13.0996 14.3213H2.90039C1.79588 14.3212 0.900391 13.4258 0.900391 12.3213V3.66211C0.900391 2.55758 1.79588 1.66218 2.90039 1.66211H13.0996ZM10.6963 5.04102C10.3374 5.04106 10.0459 5.33246 10.0459 5.69141C10.046 5.99012 10.2489 6.23844 10.5234 6.31445L8.67188 8.21973L7.70117 7.2207C7.2485 6.74892 6.50788 6.75006 6.05566 7.2207L3.49316 9.85938C3.24343 10.1169 3.2496 10.5283 3.50684 10.7783C3.76439 11.0283 4.1767 11.0222 4.42676 10.7646L6.87793 8.23828L7.85059 9.24023L7.93945 9.32227C8.39499 9.70302 9.07082 9.67669 9.49512 9.24023L11.4199 7.25781C11.4991 7.52755 11.7457 7.72559 12.041 7.72559C12.3998 7.7253 12.6904 7.434 12.6904 7.0752V5.69141C12.6919 5.5201 12.6266 5.34858 12.4941 5.21973C12.3524 5.08206 12.1639 5.02424 11.9814 5.04102H10.6963Z" fill="black"/>
</svg>
