<svg width="16" height="16" viewBox="0 0 16 16" fill="none" xmlns="http://www.w3.org/2000/svg">
<path d="M3.95935 10.3133L6.52151 7.6745C6.71911 7.46635 7.03698 7.46635 7.23407 7.6745L8.31604 8.78807C8.51363 8.99102 8.8315 8.99102 9.02859 8.78807L12.0405 5.68671M10.6958 5.69243H12.04V7.0766" stroke="black" stroke-width="1.3" stroke-linecap="round" stroke-linejoin="round"/>
<mask id="path-2-inside-1_8174_813" fill="white">
<path d="M0.900513 3.67187C0.900513 2.5673 1.79594 1.67188 2.90051 1.67188H13.0995C14.204 1.67188 15.0995 2.56731 15.0995 3.67188V12.3282C15.0995 13.4327 14.204 14.3282 13.0995 14.3282H2.90051C1.79594 14.3282 0.900513 13.4327 0.900513 12.3282V3.67187Z"/>
</mask>
<path d="M2.90051 1.67188V2.97187H13.0995V1.67188V0.371875H2.90051V1.67188ZM15.0995 3.67188H13.7995V12.3282H15.0995H16.3995V3.67188H15.0995ZM13.0995 14.3282V13.0282H2.90051V14.3282V15.6282H13.0995V14.3282ZM0.900513 12.3282H2.20051V3.67187H0.900513H-0.399487V12.3282H0.900513ZM2.90051 14.3282V13.0282C2.51391 13.0282 2.20051 12.7148 2.20051 12.3282H0.900513H-0.399487C-0.399487 14.1507 1.07798 15.6282 2.90051 15.6282V14.3282ZM15.0995 12.3282H13.7995C13.7995 12.7148 13.4861 13.0282 13.0995 13.0282V14.3282V15.6282C14.922 15.6282 16.3995 14.1507 16.3995 12.3282H15.0995ZM13.0995 1.67188V2.97187C13.4861 2.97187 13.7995 3.28528 13.7995 3.67188H15.0995H16.3995C16.3995 1.84933 14.922 0.371875 13.0995 0.371875V1.67188ZM2.90051 1.67188V0.371875C1.07797 0.371875 -0.399487 1.84933 -0.399487 3.67187H0.900513H2.20051C2.20051 3.28528 2.51391 2.97187 2.90051 2.97187V1.67188Z" fill="black" mask="url(#path-2-inside-1_8174_813)"/>
</svg>
