<svg width="16" height="16" viewBox="0 0 16 16" fill="none" xmlns="http://www.w3.org/2000/svg">
<path d="M5.66672 14.6667V13.3334M10.3334 14.6667V13.3334M8.00006 14.6667V13.3334M11.1734 14.6667H4.82006C4.08006 14.6667 3.48006 14.0667 3.48006 13.3334C3.47339 13.28 3.48006 13.2334 3.48672 13.18L3.72006 11.0327C3.86672 9.67937 5.00672 8.65937 6.36672 8.66071H9.59339C10.9467 8.65404 12.0934 9.68071 12.2467 11.0327L12.4801 13.18C12.5601 13.9067 12.0334 14.5667 11.3001 14.6467C11.2467 14.6467 11.1934 14.6534 11.1467 14.6534L11.1734 14.6667ZM8.00006 1.33337C8.54672 1.33337 9.00006 1.78004 9.00006 2.33337V6.33337C9.00006 6.51337 8.84672 6.66671 8.66672 6.66671H7.33339C7.14672 6.66671 7.00006 6.51337 7.00006 6.33337V2.33337C7.00006 1.78004 7.44672 1.33337 8.00006 1.33337ZM9.50006 8.66671H6.50006C6.12672 8.66671 5.82672 8.36671 5.82672 8.00004C5.82006 7.90671 5.84006 7.82004 5.87339 7.74004L6.14672 7.07337C6.24672 6.82004 6.48672 6.66004 6.76006 6.66004H9.20006C9.46672 6.65337 9.70672 6.82004 9.81339 7.06671L10.0867 7.73337C10.2267 8.06671 10.0667 8.46004 9.72672 8.60004C9.64006 8.63337 9.55339 8.64671 9.46672 8.64671L9.50006 8.66671Z" stroke="black" stroke-width="1.3" stroke-linecap="round" stroke-linejoin="round"/>
</svg>
