<svg width="16" height="16" viewBox="0 0 16 16" fill="none" xmlns="http://www.w3.org/2000/svg">
<path fill-rule="evenodd" clip-rule="evenodd" d="M8 1.5C11.5901 1.5 14.5 4.40986 14.5 8C14.5 11.5901 11.5901 14.5 8 14.5C4.40353 14.5 1.5 11.5898 1.5 8C1.5 4.40353 4.41018 1.5 8 1.5ZM8 3.61621C7.64104 3.61621 7.34964 3.90764 7.34961 4.2666V8C7.34964 8.35896 7.64104 8.65039 8 8.65039H11.0996C11.4586 8.65039 11.75 8.35896 11.75 8C11.75 7.64104 11.4586 7.34961 11.0996 7.34961H8.65039V4.2666C8.65036 3.90764 8.35896 3.61621 8 3.61621Z" fill="black"/>
</svg>
