<svg width="16" height="16" viewBox="0 0 16 16" fill="none" xmlns="http://www.w3.org/2000/svg">
<path d="M8.66667 7.00004V5.33337C8.66667 4.97975 8.31548 4.64061 7.69036 4.39056C7.06523 4.14052 6.21739 4.00004 5.33333 4.00004C4.44928 4.00004 3.60143 4.14052 2.97631 4.39056C2.35119 4.64061 2 4.97975 2 5.33337V10.6667C2 11.4 3.49267 12 5.33333 12M2 5.33337C2 5.687 2.35119 6.02613 2.97631 6.27618C3.60143 6.52623 4.44928 6.66671 5.33333 6.66671C6.21739 6.66671 7.06523 6.52623 7.69036 6.27618C8.31548 6.02613 8.66667 5.687 8.66667 5.33337M7.33333 10C7.33333 10.7334 8.82 11.3334 10.6667 11.3334C12.5067 11.3334 14 10.7334 14 10M7.33333 10V12.6667C7.33333 13.4 8.82 14 10.6667 14C12.5067 14 14 13.4 14 12.6667V10M7.33333 10C7.33333 9.26004 8.82 8.66671 10.6667 8.66671C12.5067 8.66671 14 9.26004 14 10M5.33333 9.33337C3.49267 9.33337 2 8.73337 2 8.00004M14.6668 2.62537L12.6668 4.62537L11.4668 3.42537" stroke="black" stroke-width="1.3" stroke-linecap="round" stroke-linejoin="round"/>
</svg>
