<svg width="16" height="16" viewBox="0 0 16 16" fill="none" xmlns="http://www.w3.org/2000/svg">
<path d="M1.99995 5.33337C1.99995 6.06671 3.48662 6.66671 5.33329 6.66671M8.66662 5.33337C8.66662 4.97975 8.31543 4.64061 7.69031 4.39056C7.06519 4.14052 6.21734 4.00004 5.33329 4.00004C4.44923 4.00004 3.60138 4.14052 2.97626 4.39056C2.35114 4.64061 1.99995 4.97975 1.99995 5.33337V10.6667C1.99995 11.4 3.49262 12 5.33329 12M1.99995 5.33337C1.99995 5.687 2.35114 6.02613 2.97626 6.27618C3.60138 6.52623 4.44923 6.66671 5.33329 6.66671M5.33329 6.66671C6.21734 6.66671 7.06519 6.52623 7.69031 6.27618C8.31543 6.02613 8.66662 5.687 8.66662 5.33337M8.66662 5.33337L8.66662 7.00004M11.6666 4.33337L13.6666 2.33337M13.6666 4.33337L11.6666 2.33337M1.99995 8.00004C1.99995 8.73337 3.48662 9.32671 5.33262 9.32671M5.32662 9.33337C3.47995 9.33337 1.99329 8.73337 1.99329 8.00004M7.33329 10C7.33329 10.7334 8.81995 11.3334 10.6666 11.3334C12.5066 11.3334 14 10.7334 14 10L13.9993 12.6667C13.9993 13.4 12.5066 14 10.6666 14C8.81995 14 7.33329 13.4 7.33329 12.6667V10ZM13.998 10C13.998 9.26004 12.5046 8.66671 10.6646 8.66671C8.82462 8.66671 7.33129 9.26004 7.33129 10C7.33129 10.7334 8.81795 11.3334 10.6646 11.3334C12.5046 11.3334 13.998 10.7334 13.998 10Z" stroke="black" stroke-width="1.3" stroke-linecap="round" stroke-linejoin="round"/>
</svg>
