<svg width="16" height="16" viewBox="0 0 16 16" fill="none" xmlns="http://www.w3.org/2000/svg">
<path d="M1.99995 5.33331C1.99995 6.06665 3.48662 6.66665 5.33329 6.66665M1.99995 5.33331V10.6666C1.99995 11.4 3.49262 12 5.33329 12M1.99995 5.33331C1.99995 4.97969 2.35114 4.64055 2.97626 4.3905C3.60138 4.14046 4.44923 3.99998 5.33329 3.99998C6.21734 3.99998 7.06519 4.14046 7.69031 4.3905C8.31543 4.64055 8.66662 4.97969 8.66662 5.33331M1.99995 5.33331C1.99995 5.68693 2.35114 6.02607 2.97626 6.27612C3.60138 6.52617 4.44923 6.66665 5.33329 6.66665M5.33329 6.66665C6.21734 6.66665 7.06519 6.52617 7.69031 6.27612C8.31543 6.02607 8.66662 5.68694 8.66662 5.33331M8.66662 5.33331L8.66662 6.99998M11.6666 4.33331L13.6666 2.33331M13.6666 4.33331L11.6666 2.33331M1.99995 7.99998C1.99995 8.73331 3.48662 9.32665 5.33262 9.32665M5.32662 9.33331C3.47995 9.33331 1.99329 8.73331 1.99329 7.99998M7.33329 9.99998C7.33329 10.7333 8.81995 11.3333 10.6666 11.3333C12.5066 11.3333 14 10.7333 14 9.99998L13.9993 12.6666C13.9993 13.4 12.5066 14 10.6666 14C8.81995 14 7.33329 13.4 7.33329 12.6666V9.99998ZM13.998 9.99998C13.998 9.25998 12.5046 8.66665 10.6646 8.66665C8.82462 8.66665 7.33129 9.25998 7.33129 9.99998C7.33129 10.7333 8.81795 11.3333 10.6646 11.3333C12.5046 11.3333 13.998 10.7333 13.998 9.99998Z" stroke="black" stroke-width="1.3" stroke-linecap="round" stroke-linejoin="round"/>
</svg>
