<svg width="16" height="16" viewBox="0 0 16 16" fill="none" xmlns="http://www.w3.org/2000/svg">
<path d="M11.1475 5.28535C11.7451 5.08819 12.3992 5.33544 12.717 5.87861L13.8198 7.76433C13.9997 8.07188 14.0491 8.43863 13.9569 8.78281C13.8647 9.12699 13.6387 9.41997 13.3291 9.59642C11.6333 10.563 9.00921 12.0587 6.62489 13.4177C5.9519 13.8013 5.19054 14.0029 4.4159 14.0026M4.33186 14.0026C5.62107 14.0026 6.66617 12.9575 6.66617 11.6683V3.33145C6.66617 2.59476 6.06897 1.99756 5.33228 1.99756H3.33145C2.59476 1.99756 1.99756 2.59476 1.99756 3.33145V11.6683C1.99756 12.9575 3.04266 14.0026 4.33186 14.0026ZM4.33186 14.0026C5.44442 14.0031 6.47365 13.4131 7.03533 12.4527C8.45259 10.0293 9.97096 7.43296 11.0037 5.66701C11.1836 5.35942 11.2329 4.99262 11.1407 4.64842C11.0485 4.30422 10.8224 4.01124 10.5128 3.83479L8.58774 2.73757C7.95274 2.37566 7.14475 2.59218 6.7758 3.22311L6.66617 3.41054M4.49881 11.6685C4.4987 11.7605 4.42404 11.835 4.33201 11.835C4.23998 11.835 4.16538 11.7604 4.16534 11.6683C4.1653 11.5763 4.23983 11.5016 4.33186 11.5015C4.37616 11.5015 4.41866 11.519 4.44998 11.5504C4.4813 11.5817 4.49887 11.6242 4.49881 11.6685Z" stroke="black" stroke-width="1.3" stroke-linecap="round" stroke-linejoin="round"/>
</svg>
