<svg width="16" height="16" viewBox="0 0 16 16" fill="none" xmlns="http://www.w3.org/2000/svg">
<path d="M11.1475 5.28529C11.7451 5.08813 12.3992 5.33538 12.717 5.87855L13.8198 7.76427C13.9997 8.07182 14.0491 8.43857 13.9569 8.78275C13.8647 9.12693 13.6387 9.41991 13.3291 9.59636C11.6333 10.5629 9.00921 12.0587 6.62489 13.4177C5.9519 13.8013 5.19054 14.0028 4.4159 14.0025M4.33186 14.0025C5.62107 14.0025 6.66617 12.9574 6.66617 11.6682V3.33139C6.66617 2.5947 6.06897 1.9975 5.33228 1.9975H3.33145C2.59476 1.9975 1.99756 2.5947 1.99756 3.33139V11.6682C1.99756 12.9574 3.04266 14.0025 4.33186 14.0025ZM4.33186 14.0025C5.44442 14.0031 6.47365 13.413 7.03533 12.4527C8.45259 10.0293 9.97096 7.4329 11.0037 5.66695C11.1836 5.35935 11.2329 4.99256 11.1407 4.64836C11.0485 4.30416 10.8224 4.01118 10.5128 3.83473L8.58774 2.73751C7.95274 2.3756 7.14475 2.59211 6.7758 3.22305L6.66617 3.41048M4.49881 11.6684C4.4987 11.7604 4.42404 11.835 4.33201 11.8349C4.23998 11.8349 4.16538 11.7603 4.16534 11.6683C4.1653 11.5762 4.23983 11.5016 4.33186 11.5015C4.37616 11.5014 4.41866 11.519 4.44998 11.5503C4.4813 11.5816 4.49887 11.6241 4.49881 11.6684Z" stroke="black" stroke-width="1.3" stroke-linecap="round" stroke-linejoin="round"/>
</svg>
