<svg width="16" height="16" viewBox="0 0 16 16" fill="none" xmlns="http://www.w3.org/2000/svg">
<path d="M12.6667 7.33329V3.99996C12.6667 3.25996 12.0667 2.66663 11.3334 2.66663H2.66671C1.92671 2.66663 1.33337 3.25996 1.33337 3.99996V9.33329C1.33337 10.0666 1.92671 10.6666 2.66671 10.6666H10.6667M8.33337 13.3333V10.6666M5.66671 10.6666V13.3333M4.83337 13.3333H9.16671M13.6667 13.3333H11.6667C11.1134 13.3333 10.6667 12.88 10.6667 12.3333V8.33329C10.6667 7.77996 11.1134 7.33329 11.6667 7.33329H13.6667C14.2134 7.33329 14.6667 7.77996 14.6667 8.33329V12.3333C14.6667 12.88 14.2134 13.3333 13.6667 13.3333Z" stroke="black" stroke-width="1.3" stroke-linecap="round" stroke-linejoin="round"/>
</svg>
