<svg width="16" height="16" viewBox="0 0 16 16" fill="none" xmlns="http://www.w3.org/2000/svg">
<path d="M10.6667 2H12.3334C13.0697 2 13.6667 2.59695 13.6667 3.33333V12.6667C13.6667 13.403 13.0697 14 12.3334 14H10.6667M10.6667 14H3.99859C3.26513 13.9933 2.66502 13.3997 2.67169 12.6659V3.32745C2.67169 2.59372 3.26513 1.99338 4.00526 2.00006H10.6731C11.4066 2.00006 12 2.58037 12 3.32078V12.6659C11.9934 13.3997 11.4001 14 10.6667 14ZM13.3334 5H12M13.3334 8H12M13.3334 11H12M9.66668 10.6667C9.5502 10.3864 9.37547 10.1277 9.14978 9.92642C8.76393 9.57427 8.26887 9.38022 7.75197 9.38022H6.91473C6.39055 9.38022 5.89549 9.56708 5.51692 9.91924C5.29123 10.1205 5.1165 10.372 5.00002 10.6523M8.17059 5.68549C8.62925 6.13826 8.62925 6.8785 8.17059 7.33127C7.70466 7.78404 6.95479 7.78404 6.49613 7.33127C6.03019 6.87131 6.03019 6.13107 6.49613 5.6783C6.95479 5.21834 7.70466 5.21834 8.16331 5.6783" stroke="black" stroke-width="1.3" stroke-linecap="round" stroke-linejoin="round"/>
</svg>
