<svg width="16" height="16" viewBox="0 0 16 16" fill="none" xmlns="http://www.w3.org/2000/svg">
<path d="M1.37598 6.64551L14.624 6.64844V10.8154C14.6239 12.196 13.5047 13.3154 12.124 13.3154H3.87598C2.49535 13.3154 1.37611 12.196 1.37598 10.8154V6.64551ZM4.46094 8.03223C4.10212 8.03242 3.81055 8.32375 3.81055 8.68262C3.81055 9.04148 4.10212 9.33281 4.46094 9.33301H6.17383C6.53281 9.33301 6.82422 9.0416 6.82422 8.68262C6.82422 8.32363 6.53281 8.03223 6.17383 8.03223H4.46094ZM14.625 5.34961L14.624 6.64844V5.38477C14.624 5.37269 14.6222 5.36067 14.6221 5.34863L14.625 5.34961ZM11.9248 2.68457C13.4037 2.68478 14.6026 3.87434 14.6221 5.34863L1.37695 5.3457C1.39794 3.87277 2.59732 2.68479 4.0752 2.68457H11.9248Z" fill="black"/>
</svg>
