<svg width="16" height="16" viewBox="0 0 16 16" fill="none" xmlns="http://www.w3.org/2000/svg">
<path d="M14.65 8.00004C14.65 7.64106 14.359 7.35004 14 7.35004C13.641 7.35004 13.35 7.64106 13.35 8.00004H14H14.65ZM8 2.65004C8.35898 2.65004 8.65 2.35903 8.65 2.00004C8.65 1.64106 8.35898 1.35004 8 1.35004V2.00004V2.65004ZM11.0333 0.683374C10.6743 0.683374 10.3833 0.974389 10.3833 1.33337C10.3833 1.69236 10.6743 1.98337 11.0333 1.98337V1.33337V0.683374ZM14.01 4.96004C14.01 5.31903 14.301 5.61004 14.66 5.61004C15.019 5.61004 15.31 5.31903 15.31 4.96004H14.66H14.01ZM11.0333 2.68337C10.6743 2.68337 10.3833 2.97439 10.3833 3.33337C10.3833 3.69236 10.6743 3.98337 11.0333 3.98337V3.33337V2.68337ZM12.01 4.96004C12.01 5.31903 12.301 5.61004 12.66 5.61004C13.019 5.61004 13.31 5.31903 13.31 4.96004H12.66H12.01ZM6.66667 10H6.01667C6.01667 10.359 6.30768 10.65 6.66667 10.65V10ZM7.31667 6.00004C7.31667 5.64106 7.02565 5.35004 6.66667 5.35004C6.30768 5.35004 6.01667 5.64106 6.01667 6.00004H6.66667H7.31667ZM8.69 5.33337C8.69 4.97439 8.39898 4.68337 8.04 4.68337C7.68102 4.68337 7.39 4.97439 7.39 5.33337H8.04H8.69ZM7.39 6.00004C7.39 6.35903 7.68102 6.65004 8.04 6.65004C8.39898 6.65004 8.69 6.35903 8.69 6.00004H8.04H7.39ZM8.69 10C8.69 9.64106 8.39898 9.35004 8.04 9.35004C7.68102 9.35004 7.39 9.64106 7.39 10H8.04H8.69ZM7.39 10.6667C7.39 11.0257 7.68102 11.3167 8.04 11.3167C8.39898 11.3167 8.69 11.0257 8.69 10.6667H8.04H7.39ZM6.66667 8.00004V7.35004C6.30768 7.35004 6.01667 7.64106 6.01667 8.00004H6.66667ZM6.66 6.00004V5.35004C6.30101 5.35004 6.01 5.64106 6.01 6.00004H6.66ZM6.66 8.00004H6.01C6.01 8.35903 6.30101 8.65004 6.66 8.65004V8.00004ZM14 8.00004H13.35C13.35 10.9548 10.9547 13.35 8 13.35V14V14.65C11.6727 14.65 14.65 11.6727 14.65 8.00004H14ZM8 14V13.35C5.04528 13.35 2.65 10.9548 2.65 8.00004H2H1.35C1.35 11.6727 4.32731 14.65 8 14.65V14ZM2 8.00004H2.65C2.65 5.04532 5.04528 2.65004 8 2.65004V2.00004V1.35004C4.32731 1.35004 1.35 4.32735 1.35 8.00004H2ZM11.0333 1.33337V1.98337C12.6751 1.98337 14.01 3.31314 14.01 4.96004H14.66H15.31C15.31 2.59361 13.3915 0.683374 11.0333 0.683374V1.33337ZM11.0333 3.33337V3.98337C11.5743 3.98337 12.01 4.41903 12.01 4.96004H12.66H13.31C13.31 3.70106 12.2923 2.68337 11.0333 2.68337V3.33337ZM6.66667 10H7.31667V6.00004H6.66667H6.01667V10H6.66667ZM8.04 5.33337H7.39V6.00004H8.04H8.69V5.33337H8.04ZM8.04 10H7.39V10.6667H8.04H8.69V10H8.04ZM6.66667 8.00004V8.65004H9V8.00004V7.35004H6.66667V8.00004ZM9 8.00004V8.65004C9.1905 8.65004 9.35 8.80851 9.35 9.00004H10H10.65C10.65 8.08491 9.90283 7.35004 9 7.35004V8.00004ZM10 9.00004H9.35C9.35 9.18772 9.18768 9.35004 9 9.35004V10V10.65C9.90565 10.65 10.65 9.90569 10.65 9.00004H10ZM9 10V9.35004H6.66667V10V10.65H9V10ZM6.66667 10H7.31667V8.00004H6.66667H6.01667V10H6.66667ZM6.66 6.00004V6.65004H8.76V6.00004V5.35004H6.66V6.00004ZM8.76 6.00004V6.65004C8.9505 6.65004 9.11 6.80851 9.11 7.00004H9.76H10.41C10.41 6.08491 9.66283 5.35004 8.76 5.35004V6.00004ZM9.76 7.00004H9.11C9.11 7.18772 8.94768 7.35004 8.76 7.35004V8.00004V8.65004C9.66565 8.65004 10.41 7.90569 10.41 7.00004H9.76ZM8.76 8.00004V7.35004H6.66V8.00004V8.65004H8.76V8.00004ZM6.66 8.00004H7.31V6.00004H6.66H6.01V8.00004H6.66Z" fill="black"/>
</svg>
