<svg width="16" height="16" viewBox="0 0 16 16" fill="none" xmlns="http://www.w3.org/2000/svg">
<path d="M10.3334 14H11.3334C12.4379 14 13.3334 13.1046 13.3334 12V5.67287C13.3334 5.14244 13.1226 4.63374 12.7476 4.25867L11.0747 2.58579C10.6996 2.21072 10.1909 2 9.66048 2H4.66669C3.56212 2 2.66669 2.89543 2.66669 4V8.66667M13.3334 5.66667H11C10.2636 5.66667 9.66669 5.06971 9.66669 4.33333V2M8.00002 6V9.33333M8.00002 9.33333L9.33335 8M8.00002 9.33333L6.66669 8" stroke="black" stroke-width="1.3" stroke-linecap="round" stroke-linejoin="round"/>
<path d="M1.86003 13.6562C2.08005 13.5221 2.36711 13.5919 2.5013 13.8118C2.51516 13.8346 2.53107 13.8486 2.54362 13.8561C2.5547 13.8627 2.56682 13.8665 2.58333 13.8665H3.00977C3.05339 13.8664 3.08849 13.8315 3.08854 13.7878C3.08854 13.7523 3.06426 13.7197 3.02734 13.7103V13.7096L2.29883 13.5273V13.5267C1.84974 13.4138 1.5332 13.0102 1.5332 12.5456C1.53325 11.9859 1.9868 11.5333 2.54557 11.5332H2.97201C3.36259 11.5332 3.67602 11.7503 3.84961 12.0352C3.98363 12.2552 3.91405 12.5424 3.69401 12.6764C3.47388 12.8105 3.18678 12.741 3.05273 12.5208C3.03919 12.4986 3.02362 12.4848 3.01107 12.4772C2.9999 12.4705 2.98798 12.4668 2.97201 12.4668H2.54557C2.50182 12.4668 2.46685 12.5019 2.4668 12.5456C2.4668 12.5814 2.49113 12.6129 2.52604 12.6217H2.52669L3.25586 12.8053H3.25651C3.70491 12.919 4.02214 13.3224 4.02214 13.7878C4.02209 14.3465 3.56931 14.8 3.00977 14.8001H2.58333C2.19201 14.8001 1.87839 14.5828 1.70443 14.2975C1.57045 14.0775 1.64008 13.7904 1.86003 13.6562ZM4.19987 13.6667V12.6667C4.19987 12.0407 4.70741 11.5332 5.33333 11.5332H6C6.25773 11.5332 6.4668 11.7423 6.4668 12C6.4668 12.2577 6.25773 12.4668 6 12.4668H5.33333C5.22288 12.4668 5.13346 12.5562 5.13346 12.6667V13.6667C5.13346 13.7771 5.22288 13.8665 5.33333 13.8665H6C6.25773 13.8665 6.4668 14.0756 6.4668 14.3333C6.4668 14.5911 6.25773 14.8001 6 14.8001H5.33333C4.70741 14.8001 4.19987 14.2926 4.19987 13.6667ZM9.20964 11.5508C9.45772 11.6205 9.60227 11.8782 9.53255 12.1263L8.87695 14.4596C8.82037 14.6609 8.6368 14.8001 8.42773 14.8001H7.98958C7.78051 14.8001 7.59697 14.6609 7.54036 14.4596L6.88411 12.1263C6.81436 11.8782 6.95894 11.6206 7.20703 11.5508C7.45513 11.481 7.71278 11.6256 7.78255 11.8737L8.20833 13.388L8.63411 11.8737C8.70386 11.6256 8.96154 11.4811 9.20964 11.5508Z" fill="black"/>
</svg>
