<svg width="16" height="16" viewBox="0 0 16 16" fill="none" xmlns="http://www.w3.org/2000/svg">
<path d="M10.3334 14H11.3334C12.4379 14 13.3334 13.1046 13.3334 12V5.67287C13.3334 5.14244 13.1226 4.63374 12.7476 4.25867L11.0747 2.58579C10.6996 2.21072 10.1909 2 9.66048 2H4.66669C3.56212 2 2.66669 2.89543 2.66669 4V8.66667M13.3334 5.66667H11C10.2636 5.66667 9.66669 5.06971 9.66669 4.33333V2M8.00002 6V9.33333M8.00002 9.33333L9.33335 8M8.00002 9.33333L6.66669 8" stroke="black" stroke-width="1.3" stroke-linecap="round" stroke-linejoin="round"/>
<path d="M4.48313 13.6562C4.70315 13.5221 4.99021 13.5919 5.12441 13.8118C5.13826 13.8346 5.15417 13.8486 5.16672 13.8561C5.1778 13.8627 5.18992 13.8665 5.20644 13.8665H5.63287C5.67649 13.8664 5.7116 13.8315 5.71165 13.7878C5.71165 13.7523 5.68736 13.7197 5.65045 13.7103L4.92193 13.5273C4.47285 13.4145 4.15631 13.0102 4.15631 12.5456C4.15636 11.9859 4.60991 11.5333 5.16868 11.5332H5.59511C5.9857 11.5332 6.29912 11.7503 6.47271 12.0352C6.60673 12.2552 6.53715 12.5424 6.31711 12.6764C6.09698 12.8105 5.80988 12.741 5.67584 12.5208C5.66229 12.4986 5.64672 12.4848 5.63417 12.4772C5.623 12.4705 5.61108 12.4668 5.59511 12.4668H5.16868C5.12492 12.4668 5.08995 12.5019 5.0899 12.5456C5.0899 12.5814 5.11423 12.6129 5.14914 12.6217L5.87896 12.8053C6.32736 12.919 6.64524 13.3224 6.64524 13.7878C6.64519 14.3465 6.19241 14.8 5.63287 14.8001H5.20644C4.81511 14.8001 4.50149 14.5828 4.32753 14.2975C4.19355 14.0775 4.26318 13.7904 4.48313 13.6562ZM9.20968 11.5508C9.45776 11.6205 9.60231 11.8782 9.5326 12.1263L8.877 14.4596C8.82042 14.6609 8.63685 14.8001 8.42778 14.8001H7.98963C7.78056 14.8001 7.59702 14.6609 7.54041 14.4596L6.88416 12.1263C6.81441 11.8782 6.95898 11.6206 7.20708 11.5508C7.45517 11.481 7.71282 11.6256 7.7826 11.8737L8.20838 13.388L8.63416 11.8737C8.70391 11.6256 8.96158 11.4811 9.20968 11.5508Z" fill="black"/>
<path d="M1.53809 12.6667V13.6667C1.53809 14.2926 2.04563 14.8001 2.67155 14.8001H3.33822C3.59595 14.8001 3.80501 14.5911 3.80501 14.3333C3.80501 14.0756 3.59595 13.8665 3.33822 13.8665H2.67155C2.56109 13.8665 2.47168 13.7771 2.47168 13.6667V12.6667C2.47168 12.5562 2.56109 12.4668 2.67155 12.4668H3.33822C3.59595 12.4668 3.80501 12.2577 3.80501 12C3.80501 11.7423 3.59595 11.5332 3.33822 11.5332H2.67155C2.04563 11.5332 1.53809 12.0407 1.53809 12.6667Z" fill="black"/>
</svg>
