<svg width="16" height="16" viewBox="0 0 16 16" fill="none" xmlns="http://www.w3.org/2000/svg">
<path d="M2 2.056V5.03067M2 5.03067V5.09067M2 5.03067C2 5.88 2.35 6.632 2.89267 7.11867C3.158 7.35667 3.33333 7.678 3.33333 8.03467V13C3.33333 13.552 3.78133 14 4.33333 14C4.88533 14 5.33333 13.552 5.33333 13V8.03467C5.33333 7.678 5.50867 7.35667 5.774 7.11867C6.31667 6.632 6.66667 5.88 6.66667 5.03067V2.056M4.33333 5.33333V2M13.3333 2.70133C13.3333 2.33333 13.0347 2.03467 12.6667 2.03467H12C10.8953 2.03467 10 2.93 10 4.03467V8.03467C10 8.904 10.558 9.63667 11.3333 9.912V13C11.3333 13.552 11.7813 14 12.3333 14C12.8853 14 13.3333 13.552 13.3333 13V2.70133Z" stroke="black" stroke-width="1.3" stroke-linecap="round" stroke-linejoin="round"/>
</svg>
