<svg width="16" height="16" viewBox="0 0 16 16" fill="none" xmlns="http://www.w3.org/2000/svg">
<path d="M2.66669 9.40668C2.66669 10.38 4.91335 11.1667 7.68669 11.1667M12.6667 3.76001C12.6667 4.73335 10.4267 5.52001 7.66669 5.52001C4.90002 5.52001 2.66669 4.72668 2.66669 3.75335M12.6667 6.58668C12.6667 7.56001 10.4267 8.34668 7.66669 8.34668C4.90002 8.34668 2.66669 7.55335 2.66669 6.58001M13.1487 12V11.1467C13.1487 10.54 12.6287 9.99335 11.9954 9.99335C11.3554 9.99335 10.842 10.5067 10.842 11.14V11.9867M7.69069 14C4.91602 14 2.66669 13.2067 2.66669 12.2333V3.76001C2.66669 2.78001 4.90002 1.99335 7.66669 1.99335C10.4267 1.99335 12.6667 2.78001 12.6667 3.75335V7.98668M13.3507 14.6667H10.6494C10.2894 14.6667 9.99602 14.3733 9.99602 14.0133V12.64C9.99602 12.28 10.2827 11.9867 10.6427 11.9867H13.344C13.6974 11.9867 13.9907 12.2733 13.9907 12.6333V14C13.9907 14.3533 13.6974 14.6467 13.3374 14.6467L13.3507 14.6667Z" stroke="black" stroke-width="1.3" stroke-linecap="round" stroke-linejoin="round"/>
</svg>
