<svg width="16" height="16" viewBox="0 0 16 16" fill="none" xmlns="http://www.w3.org/2000/svg">
<path d="M2.66663 9.40662C2.66663 10.38 4.91329 11.1666 7.68663 11.1666M12.6666 3.75995C12.6666 4.73329 10.4266 5.51995 7.66663 5.51995C4.89996 5.51995 2.66663 4.72662 2.66663 3.75329M12.6666 6.58662C12.6666 7.55995 10.4266 8.34662 7.66663 8.34662C4.89996 8.34662 2.66663 7.55329 2.66663 6.57995M13.1486 12V11.1466C13.1486 10.54 12.6286 9.99329 11.9953 9.99329C11.3553 9.99329 10.842 10.5066 10.842 11.14V11.9866M7.69063 14C4.91596 14 2.66663 13.2066 2.66663 12.2333V3.75995C2.66663 2.77995 4.89996 1.99329 7.66663 1.99329C10.4266 1.99329 12.6666 2.77995 12.6666 3.75329V7.98662M13.3506 14.6666H10.6493C10.2893 14.6666 9.99596 14.3733 9.99596 14.0133V12.64C9.99596 12.28 10.2826 11.9866 10.6426 11.9866H13.344C13.6973 11.9866 13.9906 12.2733 13.9906 12.6333V14C13.9906 14.3533 13.6973 14.6466 13.3373 14.6466L13.3506 14.6666Z" stroke="black" stroke-width="1.3" stroke-linecap="round" stroke-linejoin="round"/>
</svg>
