<svg width="16" height="16" viewBox="0 0 16 16" fill="none" xmlns="http://www.w3.org/2000/svg">
<path d="M12.6279 4.11503C11.7519 3.74461 10.8271 3.48182 9.87715 3.33337C9.74716 3.548 9.62954 3.76883 9.52478 3.99492C8.51289 3.85409 7.48387 3.85409 6.47198 3.99492C6.36718 3.76885 6.24956 3.54803 6.11962 3.33337C5.16905 3.48307 4.24365 3.74648 3.36675 4.11696C1.62589 6.49582 1.15397 8.81559 1.38993 11.1024C2.40942 11.7981 3.55053 12.3272 4.76364 12.6667C5.03679 12.3274 5.2785 11.9674 5.4862 11.5906C5.09171 11.4545 4.71095 11.2866 4.34835 11.0889C4.44378 11.0249 4.53711 10.9591 4.6273 10.8952C5.68241 11.3534 6.834 11.5911 7.99996 11.5911C9.16591 11.5911 10.3175 11.3534 11.3726 10.8952C11.4638 10.9639 11.5572 11.0298 11.6516 11.0889C11.2883 11.287 10.9068 11.4552 10.5116 11.5916C10.7191 11.9682 10.9608 12.3279 11.2342 12.6667C12.4483 12.3286 13.5903 11.7997 14.61 11.1034C14.8868 8.4514 14.137 6.15294 12.6279 4.11503ZM5.78508 9.69604C5.12754 9.69604 4.58431 9.14491 4.58431 8.4669C4.58431 7.78889 5.10866 7.23292 5.78298 7.23292C6.4573 7.23292 6.99634 7.78889 6.9848 8.4669C6.97327 9.14491 6.45521 9.69604 5.78508 9.69604ZM10.2148 9.69604C9.55624 9.69604 9.01511 9.14491 9.01511 8.4669C9.01511 7.78889 9.53946 7.23292 10.2148 7.23292C10.8902 7.23292 11.425 7.78889 11.4135 8.4669C11.402 9.14491 10.885 9.69604 10.2148 9.69604Z" fill="black"/>
</svg>
