<svg width="16" height="16" viewBox="0 0 16 16" fill="none" xmlns="http://www.w3.org/2000/svg">
<path d="M12.0166 14V14.65H13.3166V14H12.6666H12.0166ZM2.68331 14V14.65H3.98331V14H3.33331H2.68331ZM5.49998 13.35H4.84998V14.65H5.49998V14V13.35ZM10.5 14.65H11.15V13.35H10.5V14V14.65ZM5.49998 12.6833C5.14099 12.6833 4.84998 12.9743 4.84998 13.3333C4.84998 13.6923 5.14099 13.9833 5.49998 13.9833V13.3333V12.6833ZM10.5 13.9833C10.859 13.9833 11.15 13.6923 11.15 13.3333C11.15 12.9743 10.859 12.6833 10.5 12.6833V13.3333V13.9833ZM12.6666 14H13.3166V6.66667H12.6666H12.0166V14H12.6666ZM12.6666 6.66667H13.3166V4.66667H12.6666H12.0166V6.66667H12.6666ZM12.6666 4.66667H13.3166V4H12.6666H12.0166V4.66667H12.6666ZM10.6666 2V1.35H5.33331V2V2.65H10.6666V2ZM3.33331 4H2.68331V14H3.33331H3.98331V4H3.33331ZM5.33331 2V1.35C3.86976 1.35 2.68331 2.53645 2.68331 4H3.33331H3.98331C3.98331 3.25442 4.58773 2.65 5.33331 2.65V2ZM12.6666 4H13.3166C13.3166 2.53645 12.1302 1.35 10.6666 1.35V2V2.65C11.4122 2.65 12.0166 3.25442 12.0166 4H12.6666ZM12.6666 4.66667V5.31667H13.1333V4.66667V4.01667H12.6666V4.66667ZM13.2666 4.8H12.6166V6.53333H13.2666H13.9166V4.8H13.2666ZM13.1333 6.66667V6.01667H12.6666V6.66667V7.31667H13.1333V6.66667ZM13.2666 6.53333H12.6166C12.6166 6.24799 12.848 6.01667 13.1333 6.01667V6.66667V7.31667C13.5659 7.31667 13.9166 6.96596 13.9166 6.53333H13.2666ZM13.1333 4.66667V5.31667C12.848 5.31667 12.6166 5.08535 12.6166 4.8H13.2666H13.9166C13.9166 4.36738 13.5659 4.01667 13.1333 4.01667V4.66667ZM5.49998 14V14.65H10.5V14V13.35H5.49998V14ZM5.49998 13.3333V13.9833H10.5V13.3333V12.6833H5.49998V13.3333Z" fill="black"/>
</svg>
