<svg width="16" height="16" viewBox="0 0 16 16" fill="none" xmlns="http://www.w3.org/2000/svg">
<path d="M10.6636 3.34232L10.1519 4.87747C10.0612 5.14969 9.80641 5.33331 9.51946 5.33331H6.48047C6.19352 5.33331 5.93876 5.14969 5.84802 4.87747L5.33622 3.34207M5.83974 9.99998L4.80144 11.7527C4.46586 12.3192 3.85628 12.6666 3.19784 12.6666C2.6357 12.6666 2.10359 12.4129 1.7497 11.9762C1.39581 11.5394 1.25795 10.9662 1.37451 10.4163L2.31584 5.97545C2.64235 4.43511 4.00215 3.33332 5.57672 3.33331H10.4232C11.9978 3.3333 13.3576 4.4351 13.6841 5.97545L14.6254 10.4163C14.742 10.9662 14.6041 11.5394 14.2502 11.9762C13.8963 12.4129 13.3642 12.6667 12.8021 12.6666C12.1436 12.6666 11.534 12.3192 11.1985 11.7527L10.1602 9.99998H5.83974Z" stroke="black" stroke-width="1.3" stroke-linecap="round" stroke-linejoin="round"/>
</svg>
