<svg width="16" height="16" viewBox="0 0 16 16" fill="none" xmlns="http://www.w3.org/2000/svg">
<path d="M8 14V5.33337M10.464 4.4067C9.744 5.15337 8.61067 5.33203 8.064 5.33203M8.06 5.33337C8.06 5.33337 7.72667 3.25337 8.54 2.41337M10.46 4.4067C10.9867 3.85337 10.9867 2.96003 10.46 2.4067C9.92667 1.85337 9.06667 1.85337 8.54333 2.4067M7.92667 5.33203C7.38 5.33203 6.24667 5.15337 5.53333 4.4067C5 3.85337 5 2.96003 5.53333 2.4067C6.06 1.85337 6.92 1.85337 7.45 2.4067M7.934 5.33337C7.934 5.33337 8.26067 3.25337 7.44733 2.41337M12.6667 8.00003V13.3334C12.6667 13.7 12.3667 14 12 14H4C3.62667 14 3.33333 13.7 3.33333 13.3334V8.00003M13.3333 5.33337H2.66667C2.29867 5.33337 2 5.6267 2 6.00003V7.33337C2 7.70003 2.29333 8.00003 2.66667 8.00003H13.3333C13.7 8.00003 14 7.70003 14 7.33337V6.00003C14 5.6267 13.7 5.33337 13.3333 5.33337Z" stroke="black" stroke-width="1.3" stroke-linecap="round" stroke-linejoin="round"/>
</svg>
