<svg width="16" height="16" viewBox="0 0 16 16" fill="none" xmlns="http://www.w3.org/2000/svg">
<g clip-path="url(#clip0_3_426)">
<path fill-rule="evenodd" clip-rule="evenodd" d="M8.00595 0.800049C4.02124 0.800049 0.799988 4.10004 0.799988 8.18257C0.799988 11.446 2.86395 14.2083 5.72722 15.186C6.0852 15.2595 6.21633 15.0272 6.21633 14.8317C6.21633 14.6606 6.20453 14.0739 6.20453 13.4627C4.20001 13.9028 3.78258 12.5826 3.78258 12.5826C3.46044 11.7271 2.98313 11.5072 2.98313 11.5072C2.32705 11.0549 3.03092 11.0549 3.03092 11.0549C3.75869 11.1038 4.14056 11.8127 4.14056 11.8127C4.7847 12.9371 5.82265 12.6194 6.24022 12.4238C6.29981 11.9471 6.49083 11.6171 6.69364 11.4338C5.09489 11.2627 3.4128 10.6271 3.4128 7.79137C3.4128 6.98467 3.69895 6.32468 4.15236 5.81138C4.08083 5.62808 3.83022 4.87013 4.22405 3.85569C4.22405 3.85569 4.83249 3.66009 6.20438 4.61348C6.79174 4.45188 7.39747 4.36968 8.00595 4.36898C8.61438 4.36898 9.23462 4.45463 9.80736 4.61348C11.1794 3.66009 11.7878 3.85569 11.7878 3.85569C12.1817 4.87013 11.9309 5.62808 11.8594 5.81138C12.3247 6.32468 12.5991 6.98467 12.5991 7.79137C12.5991 10.6271 10.917 11.2504 9.3063 11.4338C9.56885 11.666 9.79541 12.106 9.79541 12.8027C9.79541 13.7927 9.78361 14.5872 9.78361 14.8316C9.78361 15.0272 9.91489 15.2595 10.2727 15.1862C13.136 14.2082 15.2 11.446 15.2 8.18257C15.2118 4.10004 11.9787 0.800049 8.00595 0.800049Z" fill="black"/>
</g>
<defs>
<clipPath id="clip0_3_426">
<rect width="16" height="16" fill="white"/>
</clipPath>
</defs>
</svg>
