<svg width="16" height="16" viewBox="0 0 16 16" fill="none" xmlns="http://www.w3.org/2000/svg">
<path d="M13.86 6.34664C14.3866 6.8733 14.3866 7.72664 13.86 8.2533C13.3266 8.77997 12.4733 8.77997 11.9466 8.2533C11.4133 7.71997 11.4133 6.86664 11.9466 6.33997C12.4733 5.80664 13.3266 5.80664 13.8533 6.3393M9.46663 3.93997C10.2733 4.74664 10.2733 6.05997 9.46663 6.8733C8.65329 7.67997 7.33996 7.67997 6.52663 6.8733C5.71329 6.05997 5.71329 4.74664 6.52663 3.9333C7.33329 3.11997 8.64663 3.11997 9.45996 3.9333M4.03996 6.34664C4.56663 6.8733 4.56663 7.72664 4.03996 8.2533C3.50663 8.77997 2.65329 8.77997 2.12663 8.2533C1.59329 7.71997 1.59329 6.86664 2.12663 6.33997C2.65329 5.80664 3.50663 5.80664 4.03329 6.3393M15.3333 12.6666V11.9333C15.3333 11.0066 14.5866 10.2666 13.6666 10.2666H13.1266M0.666626 12.6666V11.9333C0.666626 11.0066 1.40663 10.2666 2.33329 10.2666H2.86663M11.5533 12.6666V11.5933C11.5533 10.3 10.5066 9.25997 9.21996 9.25997H6.76663C5.47329 9.25997 4.43329 10.3 4.43329 11.5933V12.66" stroke="black" stroke-width="1.3" stroke-linecap="round" stroke-linejoin="round"/>
</svg>
