<svg width="16" height="16" viewBox="0 0 16 16" fill="none" xmlns="http://www.w3.org/2000/svg">
<path d="M13.86 6.3467C14.3866 6.87336 14.3866 7.7267 13.86 8.25336C13.3266 8.78003 12.4733 8.78003 11.9466 8.25336C11.4133 7.72003 11.4133 6.8667 11.9466 6.34003C12.4733 5.8067 13.3266 5.8067 13.8533 6.33936M9.46663 3.94003C10.2733 4.7467 10.2733 6.06003 9.46663 6.87336C8.65329 7.68003 7.33996 7.68003 6.52663 6.87336C5.71329 6.06003 5.71329 4.7467 6.52663 3.93336C7.33329 3.12003 8.64663 3.12003 9.45996 3.93336M4.03996 6.3467C4.56663 6.87336 4.56663 7.7267 4.03996 8.25336C3.50663 8.78003 2.65329 8.78003 2.12663 8.25336C1.59329 7.72003 1.59329 6.8667 2.12663 6.34003C2.65329 5.8067 3.50663 5.8067 4.03329 6.33936M15.3333 12.6667V11.9334C15.3333 11.0067 14.5866 10.2667 13.6666 10.2667H13.1266M0.666626 12.6667V11.9334C0.666626 11.0067 1.40663 10.2667 2.33329 10.2667H2.86663M11.5533 12.6667V11.5934C11.5533 10.3 10.5066 9.26003 9.21996 9.26003H6.76663C5.47329 9.26003 4.43329 10.3 4.43329 11.5934V12.66" stroke="black" stroke-width="1.3" stroke-linecap="round" stroke-linejoin="round"/>
</svg>
