<svg width="16" height="16" viewBox="0 0 16 16" fill="none" xmlns="http://www.w3.org/2000/svg">
<path d="M2 14.0001C2 12.7134 3.04267 11.6667 4.32667 11.6667H7C8.28667 11.6667 9.32667 12.7094 9.32667 13.9934M10.6667 11.6707H11.6667C12.9533 11.6707 13.9933 12.7134 13.9933 13.9974M11.9194 3.00003H14.7479M13.3336 4.41424V1.58582M5.66667 5.67072C5.40402 5.67072 5.14395 5.72246 4.9013 5.82297C4.65865 5.92348 4.43817 6.07079 4.25245 6.25651C4.06674 6.44223 3.91942 6.66271 3.81891 6.90536C3.7184 7.14801 3.66667 7.40808 3.66667 7.67072C3.66667 7.93337 3.7184 8.19344 3.81891 8.43609C3.91942 8.67874 4.06674 8.89922 4.25245 9.08494C4.43817 9.27066 4.65865 9.41797 4.9013 9.51848C5.14395 9.61899 5.40402 9.67072 5.66667 9.67072C5.92931 9.67072 6.18938 9.61899 6.43203 9.51848C6.67468 9.41797 6.89516 9.27066 7.08088 9.08494C7.2666 8.89922 7.41392 8.67874 7.51443 8.43609C7.61494 8.19344 7.66667 7.93337 7.66667 7.67072C7.66667 7.40808 7.61494 7.14801 7.51443 6.90536C7.41392 6.66271 7.2666 6.44223 7.08088 6.25651C6.89516 6.07079 6.67468 5.92348 6.43203 5.82297C6.18938 5.72246 5.92931 5.67072 5.66667 5.67072ZM10.6667 7.00406C10.313 7.00406 9.97391 7.14453 9.72386 7.39458C9.47381 7.64463 9.33333 7.98377 9.33333 8.33739C9.33333 8.69101 9.47381 9.03015 9.72386 9.2802C9.97391 9.53025 10.313 9.67072 10.6667 9.67072C11.0203 9.67072 11.3594 9.53025 11.6095 9.2802C11.8595 9.03015 12 8.69101 12 8.33739C12 7.98377 11.8595 7.64463 11.6095 7.39458C11.3594 7.14453 11.0203 7.00406 10.6667 7.00406Z" stroke="black" stroke-width="1.3" stroke-linecap="round" stroke-linejoin="round"/>
</svg>
