<svg width="16" height="16" viewBox="0 0 16 16" fill="none" xmlns="http://www.w3.org/2000/svg">
<path d="M4.64667 13.3067H5.65533C5.86867 13.3067 6.08867 13.3333 6.302 13.3867L8.06867 13.8333C8.45533 13.9333 8.84867 13.94 9.242 13.8667L11.1953 13.48C11.7153 13.3733 12.1887 13.12 12.562 12.7533L13.9487 11.3733C14.342 10.98 14.342 10.34 13.9487 9.94667C13.5887 9.58667 13.0287 9.54667 12.6287 9.85334L11.022 11.0667C10.7887 11.24 10.5087 11.3333 10.222 11.3333H8.66667H9.65333C10.2067 11.3333 10.66 10.88 10.66 10.32V10.1133C10.66 9.64667 10.34 9.24001 9.89333 9.13334L8.36533 8.74667C8.112 8.68001 7.85867 8.65334 7.60533 8.65334C6.98533 8.65334 6.37867 8.83334 5.86533 9.17334L4.652 9.98001M8.96 2.78001H5.87667C5.69667 2.78001 5.53 2.84667 5.40333 2.97334L4.85 3.52001C4.58933 3.78067 4.58933 4.20267 4.85 4.46001L5.39667 5.00667C5.51667 5.12667 5.69 5.20001 5.86333 5.20001L8.94333 5.19334H8.95C9.39 6.04667 10.2767 6.64001 11.3033 6.64201C12.77 6.63534 13.9633 5.43534 13.9633 3.97001C13.9633 2.49667 12.77 1.30334 11.2967 1.30867C10.2633 1.30867 9.38333 1.90201 8.93667 2.75867M11.3347 4.17334C11.428 4.17334 11.508 4.09334 11.508 3.99334C11.508 3.89334 11.428 3.81334 11.328 3.81334C11.228 3.81334 11.148 3.88667 11.148 3.98667C11.1473 4.08001 11.2213 4.16001 11.3213 4.16001M4 14H2.66667C2.29867 14 2 13.7 2 13.3333V9.33334C2 8.96001 2.29333 8.66667 2.66667 8.66667H4C4.36667 8.66667 4.66667 8.96001 4.66667 9.33334V13.3333C4.66667 13.7 4.36667 14 4 14Z" stroke="black" stroke-width="1.3" stroke-linecap="round" stroke-linejoin="round"/>
</svg>
