<svg width="16" height="16" viewBox="0 0 16 16" fill="none" xmlns="http://www.w3.org/2000/svg">
<path d="M1.33057 9.33394L3.03163 6.49884C3.22741 6.17254 3.51218 5.90883 3.85253 5.73865L4.24282 5.54351C4.52065 5.4046 4.827 5.33228 5.13762 5.33228H14.6695M5.33225 8.66697H6.66614L8.12714 7.20658C8.55581 6.77808 9.25066 6.77815 9.67925 7.20674C10.0493 7.57675 10.1066 8.15651 9.8163 8.59185L7.82022 11.5851C7.50381 12.0595 7.04368 12.4201 6.50732 12.6139L2.66447 14.0025M6.66614 8.66697L6.6661 4.93209C6.65086 4.06368 7.3422 3.3472 8.2106 3.33142H13.1249C13.9933 3.3472 14.6847 4.06368 14.6694 4.93209V7.73325C14.6847 8.60166 13.9933 9.31815 13.1249 9.33392H9.32141" stroke="black" stroke-width="1.3" stroke-linecap="round" stroke-linejoin="round"/>
</svg>
