<svg width="16" height="16" viewBox="0 0 16 16" fill="none" xmlns="http://www.w3.org/2000/svg">
<path d="M14.2738 6V10.5M3.9933 8.13329V10.7466C3.9933 11.3733 4.30663 11.9666 4.8333 12.3133L5.89997 13.02C7.16663 13.86 8.81663 13.86 10.0833 13.02L11.15 12.3066C11.6766 11.9533 11.99 11.36 11.99 10.7333V8.11329M6.46863 2.72662L2.34663 5.01329C1.4813 5.49329 1.4813 6.73329 2.34663 7.21329L6.45996 9.49996C7.40663 10.0266 8.56663 10.0266 9.51997 9.49996L13.6333 7.21329C14.4933 6.72662 14.4933 5.48662 13.6333 5.00796L9.5133 2.72129C8.55997 2.18796 7.39997 2.18796 6.44663 2.72129L6.46863 2.72662Z" stroke="black" stroke-width="1.3" stroke-linecap="round" stroke-linejoin="round"/>
</svg>
