<svg width="16" height="16" viewBox="0 0 16 16" fill="none" xmlns="http://www.w3.org/2000/svg">
<path d="M14.2738 6.00006V10.5001M3.9933 8.13335V10.7467C3.9933 11.3734 4.30663 11.9667 4.8333 12.3134L5.89997 13.02C7.16663 13.86 8.81663 13.86 10.0833 13.02L11.15 12.3067C11.6766 11.9534 11.99 11.36 11.99 10.7334V8.11335M6.46863 2.72668L2.34663 5.01335C1.4813 5.49335 1.4813 6.73335 2.34663 7.21335L6.45996 9.50002C7.40663 10.0267 8.56663 10.0267 9.51997 9.50002L13.6333 7.21335C14.4933 6.72668 14.4933 5.48668 13.6333 5.00802L9.5133 2.72135C8.55997 2.18802 7.39997 2.18802 6.44663 2.72135L6.46863 2.72668Z" stroke="black" stroke-width="1.3" stroke-linecap="round" stroke-linejoin="round"/>
</svg>
