<svg width="16" height="16" viewBox="0 0 16 16" fill="none" xmlns="http://www.w3.org/2000/svg">
<path d="M7.71411 1.41577C7.92409 1.31293 8.17647 1.33052 8.37231 1.46753L15.0393 6.13354C15.3333 6.33931 15.4049 6.74476 15.1995 7.03882C14.9937 7.33282 14.5883 7.40461 14.2942 7.19897L13.9836 6.9812V13.9998C13.9836 14.3587 13.6922 14.6501 13.3333 14.6501H10.6643C10.2841 14.6501 9.97299 14.3467 9.96411 13.9666L9.87524 10.0916C9.85658 9.27679 9.19117 8.62583 8.37622 8.62573H7.552C6.72357 8.62573 6.052 9.29731 6.052 10.1257V13.95C6.052 14.3365 5.73832 14.65 5.35181 14.6501H2.66626C2.30743 14.65 2.01685 14.3586 2.01685 13.9998V6.9812L1.7063 7.19897C1.41221 7.40484 1.00689 7.33291 0.801025 7.03882C0.5953 6.74475 0.666183 6.33938 0.960205 6.13354L7.6272 1.46753L7.71411 1.41577Z" fill="black"/>
</svg>
