<svg width="16" height="16" viewBox="0 0 16 16" fill="none" xmlns="http://www.w3.org/2000/svg">
<path d="M3.95838 5.99923L4.43924 3.11202C4.54662 2.46909 5.10352 1.99756 5.75512 1.99756H10.1643C10.8166 1.99756 11.3728 2.46909 11.4802 3.11202L11.9617 5.99923M6.8169 12.0017C6.8169 13.1068 5.9211 14.0026 4.81607 14.0026C3.71104 14.0026 2.81523 13.1068 2.81523 12.0017C2.81523 10.8967 3.71104 10.0009 4.81607 10.0009C5.9211 10.0009 6.8169 10.8967 6.8169 12.0017ZM6.8169 12.0017C7.4485 11.2394 8.47226 11.2394 9.10385 12.0017M9.10385 12.0017C9.10385 13.1068 9.99966 14.0026 11.1047 14.0026C12.2097 14.0026 13.1055 13.1068 13.1055 12.0017C13.1055 10.8967 12.2097 10.0009 11.1047 10.0009C9.99966 10.0009 9.10385 10.8967 9.10385 12.0017ZM1.99756 8.667C5.31294 6.88826 10.6872 6.88826 14.0026 8.667" stroke="black" stroke-width="1.3" stroke-linecap="round" stroke-linejoin="round"/>
</svg>
