<svg width="16" height="16" viewBox="0 0 16 16" fill="none" xmlns="http://www.w3.org/2000/svg">
<path d="M7.24929 9.25127C6.65369 10.0379 5.62964 11.2533 3.94792 11.2533V11.2505L3.94209 11.2533C2.4519 11.2547 1.24316 9.79692 1.24316 8C1.24316 6.20307 2.4519 4.74527 3.94325 4.74667L3.94909 4.74949V4.74667C5.63081 4.74667 7.44449 6.94323 8.0401 7.73123C8.03893 7.73123 8.25032 8 8.25032 8L8.4466 8.26876C8.99966 9.05535 10.6838 11.2533 12.2454 11.2533V11.2505L12.2508 11.2533C13.6346 11.2547 14.757 9.79692 14.757 8C14.757 6.20307 13.6346 4.74527 12.2497 4.74667L12.2443 4.74949V4.74667C10.6827 4.74667 9.8044 5.96072 9.25134 6.74872" stroke="black" stroke-width="1.3" stroke-linecap="round" stroke-linejoin="round"/>
</svg>
