<svg width="16" height="16" viewBox="0 0 16 16" fill="none" xmlns="http://www.w3.org/2000/svg">
<path d="M7.24929 9.2513C6.65369 10.0379 5.62964 11.2533 3.94792 11.2533V11.2505L3.94209 11.2533C2.4519 11.2548 1.24316 9.79695 1.24316 8.00003C1.24316 6.2031 2.4519 4.7453 3.94325 4.74671L3.94909 4.74952V4.74671C5.63081 4.74671 7.44449 6.94326 8.0401 7.73126C8.03893 7.73126 8.25032 8.00003 8.25032 8.00003L8.4466 8.26879C8.99966 9.05538 10.6838 11.2533 12.2454 11.2533V11.2505L12.2508 11.2533C13.6346 11.2548 14.757 9.79695 14.757 8.00003C14.757 6.2031 13.6346 4.7453 12.2497 4.74671L12.2443 4.74952V4.74671C10.6827 4.74671 9.8044 5.96075 9.25134 6.74875" stroke="black" stroke-width="1.3" stroke-linecap="round" stroke-linejoin="round"/>
</svg>
