<svg width="16" height="16" viewBox="0 0 16 16" fill="none" xmlns="http://www.w3.org/2000/svg">
<path d="M8.03162 2.03162C11.3452 2.03162 14.0314 4.7181 14.0316 8.03162C14.0316 11.3453 11.3453 14.0316 8.03162 14.0316C4.7181 14.0314 2.03162 11.3452 2.03162 8.03162C2.03185 4.71825 4.71825 2.03185 8.03162 2.03162ZM10.6254 5.33923L10.6244 5.33826C9.28265 5.33826 8.56158 6.39697 8.24158 6.85291C8.21223 6.89473 8.18954 6.9393 8.17126 6.98474C7.97127 6.75349 7.7223 6.48665 7.4408 6.23962C6.96548 5.82259 6.26809 5.33834 5.49548 5.33826L5.49353 5.33923L5.49255 5.33826C4.10242 5.337 3.17224 6.64972 3.17224 8.00037C3.17241 9.3506 4.10227 10.6626 5.49158 10.6615L5.49255 10.6605L5.49451 10.6615C6.87817 10.6614 7.68506 9.6537 8.05408 9.16638C8.08362 9.12736 8.10684 9.0851 8.12634 9.04236C8.30586 9.26285 8.5245 9.51155 8.7699 9.74353C9.20666 10.1563 9.87182 10.6615 10.6254 10.6615V10.6605L10.6273 10.6615C11.2984 10.6621 11.8629 10.3074 12.2386 9.8197C12.6138 9.33263 12.8274 8.68687 12.8275 8.00037C12.8275 6.69884 11.9905 5.3372 10.6273 5.33826L10.6254 5.33923ZM5.49548 6.63904L5.60095 6.64783C5.85916 6.69038 6.20078 6.88145 6.58337 7.21716C6.94124 7.5312 7.24663 7.8949 7.43298 8.13318C7.27355 8.15881 7.12315 8.24236 7.01794 8.38123C6.65311 8.86305 6.197 9.35347 5.51013 9.36072C5.5014 9.36051 5.4925 9.36057 5.48376 9.36072C5.03196 9.35617 4.47318 8.8672 4.47302 8.00037C4.47302 7.18319 4.96942 6.70034 5.40564 6.64392L5.49158 6.63904C5.49282 6.63904 5.49424 6.63904 5.49548 6.63904ZM10.6283 6.63904C10.9772 6.63885 11.5277 7.08024 11.5277 8.00037C11.5276 8.42426 11.3948 8.7848 11.2094 9.02576C11.0273 9.26207 10.82 9.35775 10.6381 9.36072C10.628 9.36052 10.6178 9.35949 10.6078 9.35974C10.3951 9.35064 10.063 9.1768 9.66345 8.79919C9.32417 8.4785 9.03452 8.10539 8.86267 7.86755C9.03507 7.84359 9.19815 7.75368 9.30603 7.59998C9.66548 7.08783 10.0263 6.65062 10.6029 6.64001C10.6113 6.64027 10.6199 6.63909 10.6283 6.63904ZM8.64392 8.03357L8.64197 8.03455C8.64324 8.03063 8.64468 8.02676 8.64587 8.02283C8.64514 8.02642 8.64471 8.03008 8.64392 8.03357Z" fill="black"/>
</svg>
