<svg width="16" height="16" viewBox="0 0 16 16" fill="none" xmlns="http://www.w3.org/2000/svg">
<path d="M10.6667 6H5.33335M10.6667 7.99996H5.33335M8.66669 10H5.33335M12.966 13.5973L12.306 13.929C12.119 14.023 11.8988 14.0237 11.7112 13.9309L10.6628 13.4125L9.63558 13.9286C9.44804 14.0228 9.22709 14.0232 9.03921 13.9297L8.00002 13.4123L6.96085 13.9297C6.77297 14.0232 6.55201 14.0228 6.36447 13.9286L5.33721 13.4125L4.28889 13.9309C4.10129 14.0237 3.88103 14.023 3.69403 13.929L3.03403 13.5973C2.80883 13.4842 2.66669 13.2537 2.66669 13.0017V2.99834C2.66669 2.74631 2.80882 2.51583 3.03402 2.40267L3.69402 2.07099C3.88101 1.97702 4.10128 1.97631 4.28887 2.06907L5.33719 2.58747L6.36446 2.07142C6.552 1.97721 6.77295 1.97681 6.96083 2.07034L8.00002 2.58767L9.03919 2.07034C9.22707 1.97681 9.44803 1.97721 9.63557 2.07142L10.6628 2.58747L11.7112 2.06907C11.8987 1.97631 12.119 1.97702 12.306 2.07099L12.966 2.40267C13.1912 2.51582 13.3333 2.74631 13.3334 2.99834V13.0017C13.3333 13.2537 13.1912 13.4842 12.966 13.5973Z" stroke="black" stroke-width="1.3" stroke-linecap="round" stroke-linejoin="round"/>
</svg>
