<svg width="16" height="16" viewBox="0 0 16 16" fill="none" xmlns="http://www.w3.org/2000/svg">
<path d="M7.99998 14.65C8.35896 14.65 8.64998 14.359 8.64998 14C8.64998 13.641 8.35896 13.35 7.99998 13.35V14V14.65ZM10.6833 3.33333C10.6833 3.69232 10.9743 3.98333 11.3333 3.98333C11.6923 3.98333 11.9833 3.69232 11.9833 3.33333H11.3333H10.6833ZM11.9833 3.25C11.9833 2.89101 11.6923 2.6 11.3333 2.6C10.9743 2.6 10.6833 2.89101 10.6833 3.25H11.3333H11.9833ZM10.6833 3.41667C10.6833 3.77565 10.9743 4.06667 11.3333 4.06667C11.6923 4.06667 11.9833 3.77565 11.9833 3.41667H11.3333H10.6833ZM7.99998 14V13.35H4.66665V14V14.65H7.99998V14ZM4.66665 14V13.35C4.28925 13.35 3.98331 13.0441 3.98331 12.6667H3.33331H2.68331C2.68331 13.762 3.57128 14.65 4.66665 14.65V14ZM3.33331 12.6667H3.98331V3.33333H3.33331H2.68331V12.6667H3.33331ZM3.33331 3.33333H3.98331C3.98331 2.95594 4.28925 2.65 4.66665 2.65V2V1.35C3.57128 1.35 2.68331 2.23797 2.68331 3.33333H3.33331ZM4.66665 2V2.65H9.99998V2V1.35H4.66665V2ZM9.99998 2V2.65C10.3774 2.65 10.6833 2.95594 10.6833 3.33333H11.3333H11.9833C11.9833 2.23797 11.0953 1.35 9.99998 1.35V2ZM11.3333 3.25H10.6833V3.41667H11.3333H11.9833V3.25H11.3333ZM10.8 5.66667V6.31667H11.8666V5.66667V5.01667H10.8V5.66667ZM12.6666 6.46667H12.0166V13.2H12.6666H13.3166V6.46667H12.6666ZM11.8666 14V13.35H10.8V14V14.65H11.8666V14ZM9.99998 13.2H10.65V6.46667H9.99998H9.34998V13.2H9.99998ZM10.8 14V13.35C10.7171 13.35 10.65 13.2828 10.65 13.2H9.99998H9.34998C9.34998 14.0008 9.99917 14.65 10.8 14.65V14ZM12.6666 13.2H12.0166C12.0166 13.2828 11.9495 13.35 11.8666 13.35V14V14.65C12.6675 14.65 13.3166 14.0008 13.3166 13.2H12.6666ZM11.8666 5.66667V6.31667C11.9495 6.31667 12.0166 6.38382 12.0166 6.46667H12.6666H13.3166C13.3166 5.66585 12.6675 5.01667 11.8666 5.01667V5.66667ZM10.8 5.66667V5.01667C9.99917 5.01667 9.34998 5.66586 9.34998 6.46667H9.99998H10.65C10.65 6.38382 10.7171 6.31667 10.8 6.31667V5.66667ZM12.6666 11.3333H12.0166V13.2H12.6666H13.3166V11.3333H12.6666ZM9.99998 13.2H10.65V11.3333H9.99998H9.34998V13.2H9.99998ZM12.6666 11.3333H13.3166C13.3166 10.238 12.4287 9.35 11.3333 9.35V10V10.65C11.7107 10.65 12.0166 10.9559 12.0166 11.3333H12.6666ZM9.99998 11.3333H10.65C10.65 10.9559 10.9559 10.65 11.3333 10.65V10V9.35C10.2379 9.35 9.34998 10.238 9.34998 11.3333H9.99998Z" fill="black"/>
</svg>
