<svg width="16" height="16" viewBox="0 0 16 16" fill="none" xmlns="http://www.w3.org/2000/svg">
<path d="M12.2168 13.124C11.0679 14.0673 9.59822 14.6347 7.99805 14.6348C6.40671 14.6348 4.94392 14.0745 3.79785 13.1406L6.48242 10.4551C6.92393 10.7271 7.44221 10.8867 7.99805 10.8867C8.56272 10.8866 9.08832 10.7216 9.53418 10.4414L12.2168 13.124ZM5.54785 6.46582C5.26792 6.91026 5.10352 7.43457 5.10352 7.99805C5.10353 8.56684 5.27083 9.09588 5.55566 9.54297L2.87402 12.2246C1.92189 11.0766 1.34865 9.60406 1.34863 7.99805C1.34863 6.39723 1.91766 4.92859 2.86426 3.78223L5.54785 6.46582ZM13.1465 3.80176C14.0838 4.94534 14.6475 6.40602 14.6475 7.99805C14.6474 9.59532 14.0806 11.0608 13.1377 12.2061L10.4521 9.52051C10.7285 9.07801 10.8916 8.55765 10.8916 7.99805C10.8916 7.44377 10.7314 6.92807 10.46 6.48828L13.1465 3.80176ZM7.99805 1.36133C9.60348 1.36142 11.0779 1.93201 12.2285 2.88086L9.54785 5.5625C9.0992 5.27718 8.56835 5.10945 7.99805 5.10938C7.43706 5.10938 6.91385 5.27113 6.46973 5.54785L3.78613 2.86426C4.93388 1.92487 6.40146 1.36133 7.99805 1.36133Z" fill="black"/>
</svg>
