<svg width="16" height="16" viewBox="0 0 16 16" fill="none" xmlns="http://www.w3.org/2000/svg">
<path d="M9.99996 10.1267H5.99996M13.3333 3.33335L14.1266 2.54002M2.66662 10L1.87329 10.7934M3.33329 2.66669L2.53996 1.87335M13.3333 10L14.1266 10.7934M14 6.66669H15.1266M0.873291 6.66669H1.99996M5.99996 12H9.91329M5.69329 9.93069C4.50662 9.09069 3.79329 7.63069 4.04662 6.02402C4.31329 4.28602 5.75996 2.89869 7.51329 2.69402C9.93863 2.40735 11.9966 4.29402 11.9966 6.66069C11.9966 8.00735 11.3233 9.20069 10.2966 9.92602C10.11 10.0527 9.98996 10.2527 9.98996 10.4794V12.3194C9.98996 13.2394 9.24329 13.986 8.32329 13.986H7.65662C6.72996 13.986 5.98996 13.2394 5.98996 12.3194V10.4774C5.98996 10.244 5.86329 10.044 5.68329 9.91069L5.69329 9.93069Z" stroke="black" stroke-width="1.3" stroke-linecap="round" stroke-linejoin="round"/>
</svg>
