<svg xmlns="http://www.w3.org/2000/svg" width="24" height="24" viewBox="0 0 24 24" fill="none">
<path d="M15.0001 15.1901H9.00006M20.0001 5.00006L21.1901 3.81006M4.00006 15.0001L2.81006 16.1901M5.00006 4.00006L3.81006 2.81006M20.0001 15.0001L21.1901 16.1901M21.0001 10.0001H22.6901M1.31006 10.0001H3.00006M9.00006 18.0001H14.8701M8.54006 14.8961C6.76006 13.6361 5.69006 11.4461 6.07006 9.03606C6.47006 6.42906 8.64006 4.34806 11.2701 4.04106C14.9081 3.61106 17.9951 6.44106 17.9951 9.99106C17.9951 12.0111 16.9851 13.8011 15.4451 14.8891C15.1651 15.0791 14.9851 15.3791 14.9851 15.7191V18.4791C14.9851 19.8591 13.8651 20.9791 12.4851 20.9791H11.4851C10.0951 20.9791 8.98506 19.8591 8.98506 18.4791V15.7161C8.98506 15.3661 8.79506 15.0661 8.52506 14.8661L8.54006 14.8961Z" stroke="black" stroke-width="1.5" stroke-linecap="round" stroke-linejoin="round"/>
</svg>
