<svg width="16" height="16" viewBox="0 0 16 16" fill="none" xmlns="http://www.w3.org/2000/svg">
<path d="M5.33329 2.66665L6.19996 1.58331C6.32663 1.42331 6.51329 1.33331 6.71996 1.33331H9.27329C9.47329 1.33331 9.66663 1.41998 9.79329 1.58331L10.6533 2.66665V3.33331C10.6533 3.69998 10.3533 3.99998 9.98663 3.99998H5.98663C5.61329 3.99998 5.31996 3.69998 5.31996 3.33331V2.66665H5.33329ZM5.33329 2.66665L3.99996 2.66665C3.25996 2.66665 2.66663 3.25998 2.66663 3.99998V12.6666C2.66663 13.4 3.25996 14 3.99996 14H7.99996M13.3333 7.99998V3.99998C13.3333 3.25998 12.7333 2.66665 12 2.66665H10.6666M12.2526 11.934C12.286 11.9673 12.286 12.0273 12.2526 12.0673C12.2126 12.1006 12.1526 12.1006 12.1126 12.0673C12.0726 12.0273 12.0726 11.9673 12.1126 11.9273C12.146 11.8873 12.206 11.8873 12.246 11.9273M5.33329 8.99998H8.66663M5.33329 6.66665H10.6666M5.33329 11.3333H6.66663M9.83996 12.46C9.65329 12.18 9.65329 11.8133 9.83996 11.54C10.4 10.68 11.2933 9.99331 12.182 9.99331C13.0686 9.99331 13.9553 10.6733 14.522 11.5333C14.702 11.8066 14.702 12.1733 14.522 12.4533C13.9553 13.308 13.062 13.9933 12.1753 13.9933C11.282 13.9933 10.3953 13.3066 9.83329 12.4533L9.83996 12.46Z" stroke="black" stroke-width="1.3" stroke-linecap="round" stroke-linejoin="round"/>
</svg>
