<svg width="16" height="16" viewBox="0 0 16 16" fill="none" xmlns="http://www.w3.org/2000/svg">
<path d="M5.33329 2.66671L6.19996 1.58337C6.32663 1.42337 6.51329 1.33337 6.71996 1.33337H9.27329C9.47329 1.33337 9.66663 1.42004 9.79329 1.58337L10.6533 2.66671V3.33337C10.6533 3.70004 10.3533 4.00004 9.98663 4.00004H5.98663C5.61329 4.00004 5.31996 3.70004 5.31996 3.33337V2.66671H5.33329ZM5.33329 2.66671L3.99996 2.66671C3.25996 2.66671 2.66663 3.26004 2.66663 4.00004V12.6667C2.66663 13.4 3.25996 14 3.99996 14H7.99996M13.3333 8.00004V4.00004C13.3333 3.26004 12.7333 2.66671 12 2.66671H10.6666M12.2526 11.934C12.286 11.9674 12.286 12.0274 12.2526 12.0674C12.2126 12.1007 12.1526 12.1007 12.1126 12.0674C12.0726 12.0274 12.0726 11.9674 12.1126 11.9274C12.146 11.8874 12.206 11.8874 12.246 11.9274M5.33329 9.00004H8.66663M5.33329 6.66671H10.6666M5.33329 11.3334H6.66663M9.83996 12.46C9.65329 12.18 9.65329 11.8134 9.83996 11.54C10.4 10.68 11.2933 9.99337 12.182 9.99337C13.0686 9.99337 13.9553 10.6734 14.522 11.5334C14.702 11.8067 14.702 12.1734 14.522 12.4534C13.9553 13.308 13.062 13.9934 12.1753 13.9934C11.282 13.9934 10.3953 13.3067 9.83329 12.4534L9.83996 12.46Z" stroke="black" stroke-width="1.3" stroke-linecap="round" stroke-linejoin="round"/>
</svg>
