<svg width="16" height="16" viewBox="0 0 16 16" fill="none" xmlns="http://www.w3.org/2000/svg">
<path d="M9.03776 4.3318L7.74122 5.62834L6.9629 4.85002M5.99916 7.66653H10.0008M3.33139 9.33389V3.33139C3.33139 2.5947 3.92859 1.9975 4.66527 1.9975H11.3347C12.0714 1.9975 12.6686 2.5947 12.6686 3.33139V9.33389M1.9975 12.6686V10.3343C1.9975 9.78179 2.4454 9.33389 2.99791 9.33389H4.2511C4.51624 9.33394 4.77052 9.43925 4.95806 9.62668L5.609 10.2776C5.85904 10.5274 6.19798 10.6677 6.55139 10.6678H9.44793C9.80191 10.6679 10.1414 10.5273 10.3917 10.2769L10.9446 9.72405C11.1946 9.47429 11.5335 9.33396 11.8869 9.33389H13.0021C13.5546 9.33389 14.0025 9.78179 14.0025 10.3343V12.6686C14.0025 13.4053 13.4053 14.0025 12.6686 14.0025H3.33139C2.5947 14.0025 1.9975 13.4053 1.9975 12.6686Z" stroke="black" stroke-width="1.3" stroke-linecap="round" stroke-linejoin="round"/>
</svg>
