<svg width="16" height="16" viewBox="0 0 16 16" fill="none" xmlns="http://www.w3.org/2000/svg">
<path d="M4.07995 9.19995L1.99329 11.3333L3.65995 12.3333L4.65995 14L7.25329 11.2666M8.73329 11.27L11.3266 13.9966L12.3266 12.33L13.9933 11.33L11.9066 9.19662M11.2933 3.36662C13.1133 5.18662 13.1133 8.13995 11.2933 9.95995C9.46662 11.78 6.51329 11.78 4.69329 9.95995C2.86662 8.13329 2.86662 5.17995 4.68662 3.35995C6.50662 1.53328 9.45995 1.53328 11.28 3.35928M7.99329 8.38928L9.18662 9.01595C9.41995 9.13595 9.68662 8.93595 9.64662 8.67595L9.41329 7.33595L10.38 6.38928C10.5666 6.20262 10.46 5.88262 10.2 5.84262L8.85995 5.64262L8.25995 4.42262C8.13995 4.18262 7.80662 4.18262 7.68662 4.42262L7.08662 5.63595L5.74662 5.82929C5.48595 5.86262 5.37995 6.18262 5.56662 6.36928L6.53329 7.30928L6.29995 8.64262C6.25329 8.90262 6.52662 9.09595 6.75995 8.97595L7.95329 8.34262H7.94662L7.99329 8.38928Z" stroke="black" stroke-width="1.3" stroke-linecap="round" stroke-linejoin="round"/>
</svg>
