<svg width="16" height="16" viewBox="0 0 16 16" fill="none" xmlns="http://www.w3.org/2000/svg">
<g clip-path="url(#clip0_805_1619)">
<path d="M4.71861 14.5387C6.51861 14.5387 7.98528 13.072 7.98528 11.2693C7.97995 9.464 6.51328 8 4.71328 8C2.90661 8 1.44395 9.46 1.44395 11.2693M4.72195 14.542C4.22861 14.542 3.76195 14.4287 3.34195 14.2353L1.32861 14.662L1.74861 12.642C1.54861 12.222 1.44195 11.7487 1.44195 11.2553M4.37128 8.01333C4.13128 7.46 3.99795 6.86666 3.99795 6.24C3.99795 3.56 6.39128 1.41333 9.33128 1.41333C12.2646 1.41333 14.6646 3.56 14.6646 6.24C14.6646 7.82 13.8179 9.216 12.5313 10.0947C12.5313 10.5947 12.5246 11.2747 12.5246 11.988L10.4313 10.9547C10.0713 11.0213 9.69795 11.0547 9.31795 11.0547C8.84461 11.0547 8.38461 10.9947 7.95128 10.888" stroke="black" stroke-width="1.3" stroke-linecap="round" stroke-linejoin="round"/>
</g>
<defs>
<clipPath id="clip0_805_1619">
<rect width="16" height="16" fill="white"/>
</clipPath>
</defs>
</svg>
