<svg width="16" height="16" viewBox="0 0 16 16" fill="none" xmlns="http://www.w3.org/2000/svg">
<path d="M6.33331 2V3.33333C6.33331 3.51333 6.48665 3.66667 6.66665 3.66667H9.33331C9.51998 3.66667 9.66665 3.51333 9.66665 3.33333V2M3.99998 11.3333V12.6667C3.99998 13.4 4.59998 14 5.33331 14H10.6666C11.4066 14 12 13.4 12 12.6667V3.33333C12 2.59333 11.4066 2 10.6666 2H5.33331C4.59998 2 3.99998 2.59333 3.99998 3.33333V4.66667M1.33331 8H4.66665M4.66665 8L3.33331 6.66667M4.66665 8L3.33331 9.33333" stroke="black" stroke-width="1.3" stroke-linecap="round" stroke-linejoin="round"/>
</svg>
