<svg width="16" height="16" viewBox="0 0 16 16" fill="none" xmlns="http://www.w3.org/2000/svg">
<path d="M14 8.00004V9.61337C14 10.5534 13.2266 11.3267 12.28 11.3267C12.2733 11.3267 12.2733 11.3267 12.2733 11.3267H3.69998C2.75331 11.3267 1.97998 10.5534 1.97998 9.60671C1.97331 9.60004 1.97331 9.60004 1.97998 9.60004V3.69337C1.97331 2.74671 2.74664 1.97337 3.69331 1.97337M3.69331 1.97337C3.69331 1.96671 3.69331 1.96671 3.69331 1.97337ZM3.69331 1.97337H3.97331M9.33331 11.3334L9.66664 14M6.66664 11.3334L6.33331 14M5.42664 14H10.5733M8.32998 3.66671V3.66004L8.32331 3.65337H8.31664M10.33 3.66671V3.66004L10.3233 3.65337H10.3166M12.3266 3.66671V3.66004L12.32 3.65337H12.3133M14 9.00004H1.99998M7.33331 1.33337H13.3333C14.0697 1.33337 14.6666 1.93033 14.6666 2.66671V4.66671C14.6666 5.40309 14.0697 6.00004 13.3333 6.00004H7.33331C6.59693 6.00004 5.99998 5.40309 5.99998 4.66671V2.66671C5.99998 1.93033 6.59693 1.33337 7.33331 1.33337Z" stroke="black" stroke-width="1.3" stroke-linecap="round" stroke-linejoin="round"/>
</svg>
