<svg width="16" height="16" viewBox="0 0 16 16" fill="none" xmlns="http://www.w3.org/2000/svg">
<path d="M11.6602 7.99996C11.6602 8.18663 11.8068 8.33329 11.9935 8.33329C12.1735 8.33329 12.3268 8.18663 12.3268 7.99996C12.3268 7.81996 12.1735 7.66663 11.9935 7.66663C11.8068 7.66663 11.6602 7.81996 11.6602 8.00663M7.66016 7.99996C7.66016 8.18663 7.80682 8.33329 7.99349 8.33329C8.17349 8.33329 8.32682 8.18663 8.32682 7.99996C8.32682 7.81996 8.17349 7.66663 7.99349 7.66663C7.80682 7.66663 7.66016 7.81996 7.66016 8.00663M3.66016 7.99996C3.66016 8.18663 3.80682 8.33329 3.99349 8.33329C4.17349 8.33329 4.32682 8.18663 4.32682 7.99996C4.32682 7.81996 4.17349 7.66663 3.99349 7.66663C3.80682 7.66663 3.66016 7.81996 3.66016 8.00663" stroke="black" stroke-width="1.3" stroke-linecap="round" stroke-linejoin="round"/>
</svg>
