<svg width="16" height="16" viewBox="0 0 16 16" fill="none" xmlns="http://www.w3.org/2000/svg">
<path fill-rule="evenodd" clip-rule="evenodd" d="M11 1.33334C11.9205 1.33334 12.6667 2.07954 12.6667 3.00001V3.33334C12.8508 3.33334 13 3.48258 13 3.66668V5.33334C13 5.49449 12.8857 5.62915 12.7338 5.66017L12.6667 5.66668V13C12.6667 13.9205 11.9205 14.6667 11 14.6667H5.00004C4.07957 14.6667 3.33337 13.9205 3.33337 13V3.00001C3.33337 2.07954 4.07957 1.33334 5.00004 1.33334H11ZM9.66671 12.6667C9.29852 12.6667 9.00004 12.9652 9.00004 13.3333C9.00004 13.7015 9.29852 14 9.66671 14H11C11.3682 14 11.6667 13.7015 11.6667 13.3333C11.6667 12.9652 11.3682 12.6667 11 12.6667H9.66671ZM5.00004 2.33334C4.63185 2.33334 4.33337 2.63182 4.33337 3.00001V11C4.33337 11.3682 4.63185 11.6667 5.00004 11.6667H11C11.3682 11.6667 11.6667 11.3682 11.6667 11V3.00001C11.6667 2.63182 11.3682 2.33334 11 2.33334H5.00004Z" fill="black"/>
</svg>
