<svg width="16" height="16" viewBox="0 0 16 16" fill="none" xmlns="http://www.w3.org/2000/svg">
<path fill-rule="evenodd" clip-rule="evenodd" d="M11 1.33331C11.9205 1.33331 12.6667 2.07951 12.6667 2.99998V3.33331C12.8508 3.33331 13 3.48255 13 3.66665V5.33331C13 5.49445 12.8857 5.62912 12.7338 5.66014L12.6667 5.66665V13C12.6667 13.9205 11.9205 14.6666 11 14.6666H5.00004C4.07957 14.6666 3.33337 13.9205 3.33337 13V2.99998C3.33337 2.07951 4.07957 1.33331 5.00004 1.33331H11ZM9.66671 12.6666C9.29852 12.6666 9.00004 12.9651 9.00004 13.3333C9.00004 13.7015 9.29852 14 9.66671 14H11C11.3682 14 11.6667 13.7015 11.6667 13.3333C11.6667 12.9651 11.3682 12.6666 11 12.6666H9.66671ZM5.00004 2.33331C4.63185 2.33331 4.33337 2.63179 4.33337 2.99998V11C4.33337 11.3682 4.63185 11.6666 5.00004 11.6666H11C11.3682 11.6666 11.6667 11.3682 11.6667 11V2.99998C11.6667 2.63179 11.3682 2.33331 11 2.33331H5.00004Z" fill="black"/>
</svg>
