<svg width="16" height="16" viewBox="0 0 16 16" fill="none" xmlns="http://www.w3.org/2000/svg">
<path d="M14 8.66663V11.3333C14 12.8 12.8 14 11.3333 14H4.66667M4.66667 14C3.19333 14 2 12.8 2 11.3333V4.66663C2 3.19329 3.19333 1.99996 4.66667 1.99996H7.33333M4.66667 14L8.86 9.79996C9.48667 9.16663 10.5 9.16663 11.1267 9.79996L13.7467 12.42M2 8.66663L2.86 7.79996C3.48667 7.16663 4.5 7.16663 5.12667 7.79329L7.98667 10.6533M12.2525 3.93395C12.2859 3.96729 12.2859 4.02729 12.2525 4.06729C12.2125 4.10062 12.1525 4.10062 12.1125 4.06729C12.0725 4.02729 12.0725 3.96729 12.1125 3.92729C12.1459 3.88729 12.2059 3.88729 12.2459 3.92729M9.83987 4.45995C9.6532 4.17995 9.6532 3.81329 9.83987 3.53995C10.3999 2.67995 11.2932 1.99329 12.1819 1.99329C13.0685 1.99329 13.9552 2.67329 14.5219 3.53329C14.7019 3.80662 14.7019 4.17329 14.5219 4.45329C13.9552 5.30795 13.0619 5.99329 12.1752 5.99329C11.2819 5.99329 10.3952 5.30662 9.8332 4.45329L9.83987 4.45995Z" stroke="black" stroke-width="1.3" stroke-linecap="round" stroke-linejoin="round"/>
</svg>
