<svg width="16" height="16" viewBox="0 0 16 16" fill="none" xmlns="http://www.w3.org/2000/svg">
<path d="M2 6.66665C3.83673 5.52379 6.16327 5.52379 8 6.66665M8 9.99998L14 6.66665C14 3.72113 11.3137 1.33331 8 1.33331C4.68629 1.33331 2 3.72113 2 6.66665L8 9.99998ZM8 6.66665C9.83673 5.52379 12.1633 5.52379 14 6.66665M8 6.66665V9.99998M5.66667 14.6666H10.3333C10.8856 14.6666 11.3333 14.2189 11.3333 13.6666V11C11.3333 10.4477 10.8856 9.99998 10.3333 9.99998H5.66667C5.11438 9.99998 4.66667 10.4477 4.66667 11V13.6666C4.66667 14.2189 5.11438 14.6666 5.66667 14.6666ZM6.9 9.99998H9.1V11.6666C9.1 11.8507 8.95076 12 8.76667 12H7.23333C7.04924 12 6.9 11.8507 6.9 11.6666V9.99998Z" stroke="black" stroke-width="1.3" stroke-linecap="round" stroke-linejoin="round"/>
</svg>
