<svg width="16" height="16" viewBox="0 0 16 16" fill="none" xmlns="http://www.w3.org/2000/svg">
<path d="M1.99756 8.667L2.86136 7.8032C3.16292 7.50164 3.57192 7.33222 3.99839 7.33222C4.42486 7.33222 4.83386 7.50164 5.13542 7.8032L8.00006 10.6678M4.66734 14.0026L8.86587 9.80403C9.49383 9.17607 10.512 9.17607 11.1399 9.80403L13.7671 12.4312M14.0026 11.3348C14.0026 12.8082 12.8082 14.0026 11.3348 14.0026H4.66534C3.19196 14.0026 1.99756 12.8082 1.99756 11.3348V4.66534C1.99756 3.19196 3.19196 1.99756 4.66534 1.99756H11.3348C12.8082 1.99756 14.0026 3.19196 14.0026 4.66534V11.3348Z" stroke="black" stroke-width="1.3" stroke-linecap="round" stroke-linejoin="round"/>
</svg>
