<svg width="16" height="16" viewBox="0 0 16 16" fill="none" xmlns="http://www.w3.org/2000/svg">
<path d="M9.31329 2.68003C10.22 3.5867 10.22 5.0667 9.31329 5.97336C8.39996 6.88003 6.91996 6.88003 6.0133 5.97336C5.09996 5.06003 5.09996 3.58003 6.01263 2.67336C6.9193 1.76003 8.39929 1.76003 9.30596 2.6727M11.3533 7.97336C11.36 7.98003 11.36 8.00003 11.3533 8.01337C11.34 8.02003 11.32 8.02003 11.3066 8.01337C11.2933 8.00003 11.2933 7.98003 11.3066 7.9667C11.3133 7.95336 11.3333 7.95336 11.3466 7.9667M9.98663 4.5727C10.2 4.5127 10.4066 4.4327 10.6 4.3127C10.9066 4.1127 11.2666 3.99936 11.66 3.99936H12.3266V5.69936C12.8053 6.12603 13.18 6.66603 13.4066 7.28603H13.9866C14.3533 7.28603 14.6533 7.57936 14.6533 7.9527V9.9927C14.6533 10.3594 14.3533 10.6594 13.9866 10.6594H13.1066C12.7533 11.2594 12.2466 11.766 11.6473 12.1194V13.3194C11.6473 13.686 11.3473 13.986 10.9806 13.986H9.6473C9.27396 13.986 8.98063 13.686 8.98063 13.3194V12.6527H6.6473V13.226C6.6473 13.5927 6.3473 13.8927 5.98063 13.8927H4.6473C4.27396 13.8927 3.98063 13.5927 3.98063 13.226V11.6194C3.16063 10.886 2.6473 9.82603 2.6473 8.63936C2.6473 6.8727 3.79263 5.3787 5.37396 4.84603M1.51996 6.6667C1.20663 6.8467 0.994629 7.18003 0.994629 7.5667C0.994629 8.1467 1.4613 8.61803 2.0413 8.61803H2.65663M5.66663 6.6667H9.66663" stroke="black" stroke-width="1.3" stroke-linecap="round" stroke-linejoin="round"/>
</svg>
