<svg width="16" height="16" viewBox="0 0 16 16" fill="none" xmlns="http://www.w3.org/2000/svg">
<path d="M8.00037 1.59998C11.5348 1.60019 14.3998 4.46587 14.3998 8.00037C14.3996 11.5347 11.5347 14.3996 8.00037 14.3998C4.46587 14.3998 1.60019 11.5348 1.59998 8.00037C1.59998 4.46574 4.46574 1.59998 8.00037 1.59998ZM4.14978 4.14978V11.85H11.85V4.14978H4.14978ZM9.63123 10.5502H6.36951L7.99939 8.91931L9.63123 10.5502ZM7.08044 7.99939L5.45056 9.63025V6.36951L7.08044 7.99939ZM10.5502 9.63025L8.91931 7.99939L10.5502 6.36951V9.63025ZM9.63025 5.45056L7.99939 7.08044L6.37048 5.45056H9.63025Z" fill="black"/>
</svg>
