<svg width="16" height="16" viewBox="0 0 16 16" fill="none" xmlns="http://www.w3.org/2000/svg">
<path d="M5.15338 7.99996C5.15338 6.42663 6.42671 5.15329 7.99338 5.15329M15.1934 3.83996C15.9534 5.15996 13.3534 8.09996 9.37338 10.3933C5.39338 12.6866 1.54671 13.4733 0.786711 12.1466M0.800045 12.16C0.333378 11.3533 1.11338 9.95329 2.68671 8.45996M11.06 3.63329C13.1334 3.01329 14.7334 3.03996 15.2 3.83996M8.00005 2.66663C6.58556 2.66663 5.229 3.22853 4.22881 4.22872C3.22861 5.22892 2.66671 6.58547 2.66671 7.99996C2.66671 9.41445 3.22861 10.771 4.22881 11.7712C5.229 12.7714 6.58556 13.3333 8.00005 13.3333C9.41453 13.3333 10.7711 12.7714 11.7713 11.7712C12.7715 10.771 13.3334 9.41445 13.3334 7.99996C13.3334 6.58547 12.7715 5.22892 11.7713 4.22872C10.7711 3.22853 9.41453 2.66663 8.00005 2.66663Z" stroke="black" stroke-width="1.3" stroke-linecap="round" stroke-linejoin="round"/>
</svg>
