<svg width="16" height="16" viewBox="0 0 16 16" fill="none" xmlns="http://www.w3.org/2000/svg">
<path d="M3.66663 6.33329C3.66663 3.93463 5.59996 1.99996 7.99996 1.99996C10.3933 1.99996 12.3333 3.93329 12.3333 6.33329M3.66663 6.33329C3.66663 8.72663 5.59996 10.6666 7.99996 10.6666C10.3933 10.6666 12.3333 8.72663 12.3333 6.33329M3.66663 6.33329H12.3333M6.99996 12.3333L8.99996 14.3333M6.99996 14.3333L8.99996 12.3333M10.6666 13.3333H13.3333M2.66663 13.3333H5.33329M7.11796 2.50996C5.72463 4.83329 5.72463 7.82996 7.11796 10.1566C7.52463 10.8366 8.47129 10.8366 8.87796 10.1566C10.2646 7.82996 10.2646 4.83329 8.87796 2.50996C8.46463 1.82996 7.51796 1.82996 7.11129 2.50929L7.11796 2.50996Z" stroke="black" stroke-width="1.3" stroke-linecap="round" stroke-linejoin="round"/>
</svg>
