<svg width="16" height="16" viewBox="0 0 16 16" fill="none" xmlns="http://www.w3.org/2000/svg">
<path d="M3.66663 6.33332C3.66663 3.93466 5.59996 1.99999 7.99996 1.99999C10.3933 1.99999 12.3333 3.93332 12.3333 6.33332M3.66663 6.33332C3.66663 8.72666 5.59996 10.6667 7.99996 10.6667C10.3933 10.6667 12.3333 8.72666 12.3333 6.33332M3.66663 6.33332H12.3333M6.99996 12.3333L8.99996 14.3333M6.99996 14.3333L8.99996 12.3333M10.6666 13.3333H13.3333M2.66663 13.3333H5.33329M7.11796 2.50999C5.72463 4.83333 5.72463 7.82999 7.11796 10.1567C7.52463 10.8367 8.47129 10.8367 8.87796 10.1567C10.2646 7.82999 10.2646 4.83333 8.87796 2.50999C8.46463 1.82999 7.51796 1.82999 7.11129 2.50933L7.11796 2.50999Z" stroke="black" stroke-width="1.3" stroke-linecap="round" stroke-linejoin="round"/>
</svg>
