<svg width="16" height="16" viewBox="0 0 16 16" fill="none" xmlns="http://www.w3.org/2000/svg">
<path d="M4.37655 9.62308C4.37655 9.19598 4.72278 8.84975 5.14988 8.84975H6.1376C6.56471 8.84975 6.91094 9.19598 6.91094 9.62308V10.6108C6.91094 11.0379 6.56471 11.3841 6.13761 11.3841H5.14988C4.72278 11.3841 4.37655 11.0379 4.37655 10.6108V9.62308Z" stroke="black" stroke-width="1.3" stroke-linecap="round" stroke-linejoin="round"/>
<path d="M11.7129 10.1176C11.7129 10.9 11.0787 11.5342 10.2963 11.5342C9.51399 11.5342 8.87976 10.9 8.87976 10.1176C8.87976 9.33525 9.51399 8.70102 10.2963 8.70102C11.0787 8.70102 11.7129 9.33525 11.7129 10.1176Z" stroke="black" stroke-width="1.3" stroke-linecap="round" stroke-linejoin="round"/>
<path fill-rule="evenodd" clip-rule="evenodd" d="M7.73662 4.56196L6.6515 6.44208C6.58599 6.55554 6.58597 6.69532 6.65144 6.80881C6.71692 6.92229 6.83795 6.99223 6.96896 6.99231H9.1392C9.27021 6.99223 9.39124 6.92229 9.45672 6.80881C9.52219 6.69532 9.52217 6.55554 9.45667 6.44208L8.37221 4.56196C8.30672 4.44834 8.18555 4.37834 8.05441 4.37834C7.92327 4.37834 7.80211 4.44834 7.73662 4.56196Z" stroke="black" stroke-width="1.3" stroke-linecap="round" stroke-linejoin="round"/>
<path d="M1.99756 5.33089C1.99756 3.48994 3.48994 1.99756 5.33089 1.99756H10.6692C12.5102 1.99756 14.0026 3.48994 14.0026 5.33089V10.6692C14.0026 12.5102 12.5102 14.0026 10.6692 14.0026H5.33089C3.48994 14.0026 1.99756 12.5102 1.99756 10.6692V5.33089Z" stroke="black" stroke-width="1.3" stroke-linecap="round" stroke-linejoin="round"/>
</svg>
