<svg width="16" height="16" viewBox="0 0 16 16" fill="none" xmlns="http://www.w3.org/2000/svg">
<path d="M6.02663 7.20671L9.9733 5.23338M6.02663 8.79335L9.9733 10.7667M5.7018 6.74277C6.39616 7.43712 6.39616 8.56289 5.7018 9.25724C5.00745 9.9516 3.88168 9.9516 3.18733 9.25724C2.49298 8.56289 2.49298 7.43712 3.18733 6.74277C3.88168 6.04842 5.00745 6.04842 5.7018 6.74277ZM12.8126 3.18745C13.5069 3.88181 13.5069 5.00757 12.8126 5.70193C12.1182 6.39628 10.9924 6.39628 10.2981 5.70193C9.60373 5.00757 9.60373 3.88181 10.2981 3.18745C10.9924 2.4931 12.1182 2.4931 12.8126 3.18745ZM12.8126 10.2981C13.5069 10.9924 13.5069 12.1182 12.8126 12.8126C12.1182 13.5069 10.9924 13.5069 10.2981 12.8126C9.60373 12.1182 9.60373 10.9924 10.2981 10.2981C10.9924 9.60374 12.1182 9.60374 12.8126 10.2981Z" stroke="black" stroke-width="1.3" stroke-linecap="round" stroke-linejoin="round"/>
</svg>
