<svg width="16" height="16" viewBox="0 0 16 16" fill="none" xmlns="http://www.w3.org/2000/svg">
<g clip-path="url(#clip0_3_369)">
<mask id="mask0_3_369" style="mask-type:alpha" maskUnits="userSpaceOnUse" x="0" y="0" width="16" height="16">
<path d="M9.50488 0C8.97728 0.756045 8.66699 1.67513 8.66699 2.66699C8.66717 5.24406 10.7559 7.33283 13.333 7.33301C14.3249 7.33301 15.244 7.02272 16 6.49512V16H0V0H9.50488Z" fill="#D9D9D9"/>
</mask>
<g mask="url(#mask0_3_369)">
<path d="M10.1667 6.75002L7.66669 9.25002L6.16669 7.75002M13.3334 7.45468C13.3334 10.482 11.0534 13.3127 8.00002 14C4.94202 13.3067 2.66669 10.48 2.66669 7.45468V5.07668C2.66669 4.53002 2.99335 4.04335 3.49335 3.83668L6.82669 2.47002C7.57335 2.15668 8.41869 2.15668 9.16669 2.47002L12.5 3.83002C13 4.03002 13.3267 4.51668 13.3267 5.06335V7.44135L13.3334 7.45468Z" stroke="black" stroke-width="1.3" stroke-linecap="round" stroke-linejoin="round"/>
</g>
<circle cx="13.3334" cy="2.66667" r="2.66667" fill="#D4A0FF"/>
</g>
<defs>
<clipPath id="clip0_3_369">
<rect width="16" height="16" fill="white"/>
</clipPath>
</defs>
</svg>
