<svg width="16" height="16" viewBox="0 0 16 16" fill="none" xmlns="http://www.w3.org/2000/svg">
<path d="M8.11802 7.54868C8.17802 7.60868 8.17802 7.71534 8.11802 7.78201C8.05135 7.84201 7.94469 7.84201 7.87802 7.78201C7.81135 7.71534 7.81135 7.60868 7.87802 7.54201C7.93802 7.47534 8.04469 7.47534 8.11135 7.54201M10.78 7.54868C10.84 7.60868 10.84 7.71534 10.78 7.78201C10.7134 7.84201 10.6067 7.84201 10.54 7.78201C10.4734 7.71534 10.4734 7.60868 10.54 7.54201C10.6 7.47534 10.7067 7.47534 10.7734 7.54201M5.45135 7.54868C5.51135 7.60868 5.51135 7.71534 5.45135 7.78201C5.38469 7.84201 5.27802 7.84201 5.21135 7.78201C5.14469 7.71534 5.14469 7.60868 5.21135 7.54201C5.27135 7.47534 5.37802 7.47534 5.44469 7.54201M13.3334 7.45467C13.3334 10.482 11.0534 13.3127 8.00002 14C4.94202 13.3067 2.66669 10.48 2.66669 7.45467V4.82134C2.66669 4.27467 2.99335 3.78801 3.43335 3.60801L6.76669 2.24401C7.57335 1.91067 8.41335 1.91067 9.16669 2.21734L12.5 3.57734C13 3.77734 13.3267 4.26401 13.3267 4.81134V7.43801L13.3334 7.45467Z" stroke="black" stroke-width="1.3" stroke-linecap="round" stroke-linejoin="round"/>
</svg>
