<svg width="16" height="16" viewBox="0 0 16 16" fill="none" xmlns="http://www.w3.org/2000/svg">
<path d="M9.01802 7.41665V6.51665C9.01802 5.95465 8.55802 5.49665 7.99802 5.49665C7.43602 5.49665 6.97802 5.94999 6.97802 6.50999V7.40332M9.16669 7.41332H6.83335C6.46002 7.41332 6.16669 7.70665 6.16669 8.07999V9.49332C6.16669 9.85999 6.46002 10.16 6.83335 10.16H9.16669C9.53335 10.16 9.83335 9.85999 9.83335 9.49332V8.07332C9.83335 7.69999 9.53335 7.40665 9.16669 7.40665V7.41332ZM13.3334 7.49332C13.3334 10.4053 11.2287 13.1333 8.34669 13.9467C8.12002 14.0067 7.87869 14.0067 7.65335 13.9467C4.76669 13.1267 2.66669 10.4 2.66669 7.48665V4.79999C2.66669 4.25332 2.99335 3.76665 3.49335 3.56599L6.73335 2.23932C7.54002 1.90599 8.44935 1.90599 9.25335 2.23932L12.4934 3.56599C12.9934 3.76599 13.32 4.25265 13.32 4.79999V7.48532L13.3334 7.49332Z" stroke="black" stroke-width="1.3" stroke-linecap="round" stroke-linejoin="round"/>
</svg>
