<svg width="16" height="16" viewBox="0 0 16 16" fill="none" xmlns="http://www.w3.org/2000/svg">
<path d="M9.01802 7.41671V6.51671C9.01802 5.95471 8.55802 5.49671 7.99802 5.49671C7.43602 5.49671 6.97802 5.95005 6.97802 6.51005V7.40338M9.16669 7.41338H6.83335C6.46002 7.41338 6.16669 7.70671 6.16669 8.08005V9.49338C6.16669 9.86005 6.46002 10.16 6.83335 10.16H9.16669C9.53335 10.16 9.83335 9.86005 9.83335 9.49338V8.07338C9.83335 7.70005 9.53335 7.40671 9.16669 7.40671V7.41338ZM13.3334 7.49338C13.3334 10.4054 11.2287 13.1334 8.34669 13.9467C8.12002 14.0067 7.87869 14.0067 7.65335 13.9467C4.76669 13.1267 2.66669 10.4 2.66669 7.48671V4.80005C2.66669 4.25338 2.99335 3.76671 3.49335 3.56605L6.73335 2.23938C7.54002 1.90605 8.44935 1.90605 9.25335 2.23938L12.4934 3.56605C12.9934 3.76605 13.32 4.25271 13.32 4.80005V7.48538L13.3334 7.49338Z" stroke="black" stroke-width="1.3" stroke-linecap="round" stroke-linejoin="round"/>
</svg>
