<svg width="16" height="16" viewBox="0 0 16 16" fill="none" xmlns="http://www.w3.org/2000/svg">
<path d="M8.11802 7.54871C8.17802 7.60871 8.17802 7.71537 8.11802 7.78204C8.05135 7.84204 7.94469 7.84204 7.87802 7.78204C7.81135 7.71537 7.81135 7.60871 7.87802 7.54204C7.93802 7.47537 8.04469 7.47537 8.11135 7.54204M10.78 7.54871C10.84 7.60871 10.84 7.71537 10.78 7.78204C10.7134 7.84204 10.6067 7.84204 10.54 7.78204C10.4734 7.71537 10.4734 7.60871 10.54 7.54204C10.6 7.47537 10.7067 7.47537 10.7734 7.54204M5.45135 7.54871C5.51135 7.60871 5.51135 7.71537 5.45135 7.78204C5.38469 7.84204 5.27802 7.84204 5.21135 7.78204C5.14469 7.71537 5.14469 7.60871 5.21135 7.54204C5.27135 7.47537 5.37802 7.47537 5.44469 7.54204M13.3334 7.45471C13.3334 10.482 11.0534 13.3127 8.00002 14C4.94202 13.3067 2.66669 10.48 2.66669 7.45471V4.82137C2.66669 4.2747 2.99335 3.78804 3.43335 3.60804L6.76669 2.24404C7.57335 1.9107 8.41335 1.9107 9.16669 2.21737L12.5 3.57737C13 3.77737 13.3267 4.26404 13.3267 4.81137V7.43804L13.3334 7.45471Z" stroke="black" stroke-width="1.3" stroke-linecap="round" stroke-linejoin="round"/>
</svg>
