<svg width="16" height="16" viewBox="0 0 16 16" fill="none" xmlns="http://www.w3.org/2000/svg">
<path d="M9.00629 12.6667H13.0063M2.35636 5.36719C2.11907 4.97024 1.99576 4.51557 1.99999 4.05312C1.90485 3.02941 2.64525 2.11733 3.66666 2C5.5076 2 6.99999 4.68629 6.99999 8C6.99999 11.3137 5.65684 14 3.99999 14H4.00136C3.08013 14 2.33332 12.8061 2.33332 11.3333C2.3339 9.91826 2.8966 8.56138 3.89761 7.56119C4.89863 6.56099 6.25597 5.99942 7.67104 6H7.66666C9.04468 6.09832 10.086 7.28886 9.99999 8.66771C9.99328 9.34735 9.88057 10.0218 9.66593 10.6667C10.8655 7.05764 12.0004 6.66667 12.6669 6.66667C13.0205 6.6667 13.3596 6.8072 13.6096 7.05725C13.8596 7.3073 14 7.64642 14 8" stroke="black" stroke-width="1.3" stroke-linecap="round" stroke-linejoin="round"/>
</svg>
