<svg width="16" height="16" viewBox="0 0 16 16" fill="none" xmlns="http://www.w3.org/2000/svg">
<path d="M10.6678 8.66694V11.5895C10.6678 11.8421 10.5251 12.073 10.2992 12.186L8.68787 12.9917C8.51494 13.0782 8.313 13.0853 8.13437 13.0113C7.95575 12.9373 7.81802 12.7895 7.75688 12.6061L7.33311 11.3347M4.66534 8.66694L3.39403 8.24317C3.21061 8.18203 3.06275 8.04431 2.98877 7.86568C2.91478 7.68706 2.92194 7.48512 3.00841 7.31219L3.81408 5.7009C3.92704 5.47496 4.15796 5.33222 4.41056 5.33222H7.33311M11.3986 8.08235L7.79925 10.9618C7.53388 11.1741 7.15132 11.1529 6.91101 10.9126L5.08744 9.08904C4.84714 8.84874 4.82595 8.46618 5.03825 8.20081L7.91771 4.60148C9.23441 2.9556 11.2279 1.9975 13.3356 1.9975C13.704 1.9975 14.0026 2.2961 14.0026 2.66444C14.0026 4.77219 13.0445 6.76565 11.3986 8.08235ZM3.83172 13.727L1.99756 14.0025L2.27311 12.1683C2.36249 11.5733 2.82958 11.1062 3.42458 11.0169C3.85455 10.9523 4.28966 11.0955 4.5971 11.403C4.90455 11.7104 5.04784 12.1455 4.98323 12.5755C4.89382 13.1705 4.42673 13.6376 3.83172 13.727Z" stroke="black" stroke-width="1.3" stroke-linecap="round" stroke-linejoin="round"/>
</svg>
