<svg width="16" height="16" viewBox="0 0 16 16" fill="none" xmlns="http://www.w3.org/2000/svg">
<path d="M2.52512 6.20662C1.39179 8.68662 2.08512 11.62 4.21845 13.3266M11.7661 13.3191C13.1727 12.1791 13.9994 10.4658 13.9927 8.65244C13.9875 6.04576 12.3235 3.82694 10.0006 3.00232M4.21297 13.3191C2.80631 12.1791 1.97964 10.4658 1.98631 8.65244C1.99155 6.04576 3.65554 3.82694 5.97845 3.00232M8.00059 7.33305V2.66638M7.97845 7.32662C8.33208 7.32662 8.67121 7.4671 8.92126 7.71715C9.17131 7.9672 9.31179 8.30633 9.31179 8.65996C9.31179 9.01358 9.17131 9.35272 8.92126 9.60276C8.67121 9.85281 8.33208 9.99329 7.97845 9.99329C7.62483 9.99329 7.28569 9.85281 7.03564 9.60276C6.7856 9.35272 6.64512 9.01358 6.64512 8.65996C6.64512 8.30633 6.7856 7.9672 7.03564 7.71715C7.28569 7.4671 7.62483 7.32662 7.97845 7.32662Z" stroke="black" stroke-width="1.3" stroke-linecap="round" stroke-linejoin="round"/>
</svg>
