<svg width="16" height="16" viewBox="0 0 16 16" fill="none" xmlns="http://www.w3.org/2000/svg">
<path fill-rule="evenodd" clip-rule="evenodd" d="M1.9623 7.20068C5.72039 5.57776 8.22638 4.50783 9.48025 3.9909C13.0603 2.51495 13.8042 2.25856 14.2891 2.25009C14.3957 2.24823 14.6342 2.27442 14.7886 2.39865C14.919 2.50354 14.9549 2.64524 14.9721 2.74469C14.9893 2.84414 15.0107 3.07069 14.9937 3.24771C14.7996 5.26817 13.9602 10.1713 13.5331 12.4343C13.3524 13.3918 12.9966 13.7129 12.6521 13.7443C11.9035 13.8126 11.335 13.2539 10.6099 12.7828C9.47534 12.0456 8.83436 11.5867 7.73303 10.8673C6.46025 10.036 7.28534 9.57905 8.01069 8.83231C8.20052 8.63688 11.499 5.66311 11.5628 5.39334C11.5708 5.3596 11.5782 5.23384 11.5028 5.16743C11.4275 5.10103 11.3162 5.12373 11.2359 5.14179C11.1221 5.1674 9.30958 6.35487 5.79828 8.70421C5.2838 9.05439 4.81779 9.225 4.40027 9.21606C3.93998 9.20621 3.05457 8.9581 2.39636 8.74603C1.58904 8.48591 0.947397 8.34839 1.00327 7.90663C1.03237 7.67653 1.35205 7.44122 1.9623 7.20068Z" fill="black"/>
</svg>
