<svg width="16" height="16" viewBox="0 0 16 16" fill="none" xmlns="http://www.w3.org/2000/svg">
<path d="M7.88668 9.99999L11.22 13.3333C11.7667 13.88 12.6667 13.88 13.22 13.3333C13.7667 12.78 13.7667 11.88 13.22 11.3333L9.88668 7.99999M4.56002 4.66666L6.89335 6.99999M13.94 3.89332C13.9533 3.90666 13.9667 3.92666 13.9733 3.94666C14.2867 4.98666 14.04 6.16666 13.2133 6.98666C12.3733 7.81999 11.1867 8.05932 10.1333 7.72666L4.56868 13.2867C4.02202 13.8267 3.14201 13.8667 2.58201 13.3467C1.98868 12.7933 1.97535 11.8733 2.54201 11.3067L8.12868 5.71332C7.79535 4.65999 8.03535 3.46666 8.86868 2.63332C9.68868 1.80799 10.8687 1.55999 11.9087 1.87332C11.9287 1.87999 11.9487 1.88666 11.962 1.90666L12.0687 2.01332C12.1153 2.05999 12.1153 2.14666 12.0687 2.19999L10.3067 3.95332L11.8533 5.49999L13.6067 3.73999C13.6533 3.68666 13.74 3.68666 13.7933 3.73999L13.9 3.84666L13.94 3.89332ZM1.95335 2.85999L2.40002 4.20666C2.48668 4.47332 2.74001 4.65999 3.02668 4.65999H4.54602V3.14066C4.54602 2.85399 4.35935 2.59399 4.08602 2.50732L2.73268 2.05399C2.61268 2.01399 2.47935 2.04066 2.38602 2.13466L2.00602 2.50799C1.91268 2.59466 1.87935 2.72799 1.92535 2.84799L1.95335 2.85999Z" stroke="black" stroke-width="1.3" stroke-linecap="round" stroke-linejoin="round"/>
</svg>
