<svg width="16" height="16" viewBox="0 0 16 16" fill="none" xmlns="http://www.w3.org/2000/svg">
<path d="M7.88668 10.0001L11.22 13.3334C11.7667 13.8801 12.6667 13.8801 13.22 13.3334C13.7667 12.7801 13.7667 11.8801 13.22 11.3334L9.88668 8.00005M4.56002 4.66672L6.89335 7.00005M13.94 3.89338C13.9533 3.90672 13.9667 3.92672 13.9733 3.94672C14.2867 4.98672 14.04 6.16672 13.2133 6.98672C12.3733 7.82005 11.1867 8.05938 10.1333 7.72672L4.56868 13.2867C4.02202 13.8267 3.14201 13.8667 2.58201 13.3467C1.98868 12.7934 1.97535 11.8734 2.54201 11.3067L8.12868 5.71338C7.79535 4.66005 8.03535 3.46672 8.86868 2.63338C9.68868 1.80805 10.8687 1.56005 11.9087 1.87338C11.9287 1.88005 11.9487 1.88672 11.962 1.90672L12.0687 2.01338C12.1153 2.06005 12.1153 2.14672 12.0687 2.20005L10.3067 3.95338L11.8533 5.50005L13.6067 3.74005C13.6533 3.68672 13.74 3.68672 13.7933 3.74005L13.9 3.84672L13.94 3.89338ZM1.95335 2.86005L2.40002 4.20672C2.48668 4.47338 2.74001 4.66005 3.02668 4.66005H4.54602V3.14072C4.54602 2.85405 4.35935 2.59405 4.08602 2.50738L2.73268 2.05405C2.61268 2.01405 2.47935 2.04072 2.38602 2.13472L2.00602 2.50805C1.91268 2.59472 1.87935 2.72805 1.92535 2.84805L1.95335 2.86005Z" stroke="black" stroke-width="1.3" stroke-linecap="round" stroke-linejoin="round"/>
</svg>
