<svg width="16" height="16" viewBox="0 0 16 16" fill="none" xmlns="http://www.w3.org/2000/svg">
<path d="M12.3334 4.33333V12.6667C12.3334 13.0203 12.1929 13.3594 11.9428 13.6095C11.6928 13.8595 11.3536 14 11 14H5.00002C4.6464 14 4.30726 13.8595 4.05721 13.6095C3.80716 13.3594 3.66669 13.0203 3.66669 12.6667V4.33333M13.3334 4.33334H2.66669M9.33335 11.3333V7.33334M6.66669 11.3333V7.33334M5.66669 4.33333V3C5.66669 2.73478 5.77204 2.48043 5.95958 2.29289C6.14712 2.10536 6.40147 2 6.66669 2H9.33335C9.59857 2 9.85292 2.10536 10.0405 2.29289C10.228 2.48043 10.3334 2.73478 10.3334 3V4" stroke="black" stroke-width="1.3" stroke-linecap="round" stroke-linejoin="round"/>
</svg>
