<svg width="16" height="16" viewBox="0 0 16 16" fill="none" xmlns="http://www.w3.org/2000/svg">
<path d="M7.99996 11.3333C7.55793 11.3333 7.13401 11.5089 6.82145 11.8215C6.50889 12.1341 6.33329 12.558 6.33329 13C6.33329 13.442 6.50889 13.866 6.82145 14.1785C7.13401 14.4911 7.55793 14.6667 7.99996 14.6667C8.44199 14.6667 8.86591 14.4911 9.17847 14.1785C9.49103 13.866 9.66663 13.442 9.66663 13C9.66663 12.558 9.49103 12.1341 9.17847 11.8215C8.86591 11.5089 8.44199 11.3333 7.99996 11.3333ZM7.99996 11.3333V1.33334M7.99996 1.33334L9.49996 2.83334M7.99996 1.33334L6.49996 2.83334M7.99996 10.1467L5.37329 9.56001C4.75996 9.42001 4.32663 8.88001 4.32663 8.25334V7.32001M7.99996 9.10001L10.7133 8.28001C11.2733 8.10668 11.66 7.58668 11.66 7.00001V6.32001M11.1666 4.00001H12.1666C12.5348 4.00001 12.8333 4.29849 12.8333 4.66668V5.66668C12.8333 6.03487 12.5348 6.33334 12.1666 6.33334H11.1666C10.7984 6.33334 10.5 6.03487 10.5 5.66668V4.66668C10.5 4.29849 10.7984 4.00001 11.1666 4.00001ZM4.33329 5.00001C4.02387 5.00001 3.72713 5.12293 3.50833 5.34172C3.28954 5.56051 3.16663 5.85726 3.16663 6.16668C3.16663 6.4761 3.28954 6.77284 3.50833 6.99164C3.72713 7.21043 4.02387 7.33334 4.33329 7.33334C4.64271 7.33334 4.93946 7.21043 5.15825 6.99164C5.37704 6.77284 5.49996 6.4761 5.49996 6.16668C5.49996 5.85726 5.37704 5.56051 5.15825 5.34172C4.93946 5.12293 4.64271 5.00001 4.33329 5.00001Z" stroke="black" stroke-width="1.3" stroke-linecap="round" stroke-linejoin="round"/>
</svg>
