<svg width="16" height="16" viewBox="0 0 16 16" fill="none" xmlns="http://www.w3.org/2000/svg">
<path d="M8.00002 11.3333C7.55799 11.3333 7.13407 11.5089 6.82151 11.8215C6.50895 12.1341 6.33335 12.558 6.33335 13C6.33335 13.442 6.50895 13.866 6.82151 14.1785C7.13407 14.4911 7.55799 14.6667 8.00002 14.6667C8.44205 14.6667 8.86597 14.4911 9.17853 14.1785C9.49109 13.866 9.66669 13.442 9.66669 13C9.66669 12.558 9.49109 12.1341 9.17853 11.8215C8.86597 11.5089 8.44205 11.3333 8.00002 11.3333ZM8.00002 11.3333V1.33334M8.00002 1.33334L9.50002 2.83334M8.00002 1.33334L6.50002 2.83334M8.00002 10.1467L5.37335 9.56001C4.76002 9.42001 4.32669 8.88001 4.32669 8.25334V7.32001M8.00002 9.10001L10.7134 8.28001C11.2734 8.10668 11.66 7.58668 11.66 7.00001V6.32001M11.1667 4.00001H12.1667C12.5349 4.00001 12.8334 4.29849 12.8334 4.66668V5.66668C12.8334 6.03487 12.5349 6.33334 12.1667 6.33334H11.1667C10.7985 6.33334 10.5 6.03487 10.5 5.66668V4.66668C10.5 4.29849 10.7985 4.00001 11.1667 4.00001ZM4.33335 5.00001C4.02393 5.00001 3.72719 5.12293 3.5084 5.34172C3.2896 5.56051 3.16669 5.85726 3.16669 6.16668C3.16669 6.4761 3.2896 6.77284 3.5084 6.99164C3.72719 7.21043 4.02393 7.33334 4.33335 7.33334C4.64277 7.33334 4.93952 7.21043 5.15831 6.99164C5.3771 6.77284 5.50002 6.4761 5.50002 6.16668C5.50002 5.85726 5.3771 5.56051 5.15831 5.34172C4.93952 5.12293 4.64277 5.00001 4.33335 5.00001Z" stroke="black" stroke-width="1.3" stroke-linecap="round" stroke-linejoin="round"/>
</svg>
