<svg width="16" height="16" viewBox="0 0 16 16" fill="none" xmlns="http://www.w3.org/2000/svg">
<path d="M8.00002 11.3334C7.55799 11.3334 7.13407 11.509 6.82151 11.8215C6.50895 12.1341 6.33335 12.558 6.33335 13C6.33335 13.4421 6.50895 13.866 6.82151 14.1786C7.13407 14.4911 7.55799 14.6667 8.00002 14.6667C8.44205 14.6667 8.86597 14.4911 9.17853 14.1786C9.49109 13.866 9.66669 13.4421 9.66669 13C9.66669 12.558 9.49109 12.1341 9.17853 11.8215C8.86597 11.509 8.44205 11.3334 8.00002 11.3334ZM8.00002 11.3334V1.33337M6.50002 2.83337L8.00002 1.33337L9.50002 2.83337M8.00002 10.1467L5.37335 9.56004C4.76002 9.42004 4.32669 8.88004 4.32669 8.25337V7.32004M8.00002 9.10004L10.7134 8.28004C11.2734 8.10671 11.66 7.58671 11.66 7.00004V6.32004M11.1667 4.00004H12.1667C12.5349 4.00004 12.8334 4.29852 12.8334 4.66671V5.66671C12.8334 6.0349 12.5349 6.33337 12.1667 6.33337H11.1667C10.7985 6.33337 10.5 6.0349 10.5 5.66671V4.66671C10.5 4.29852 10.7985 4.00004 11.1667 4.00004ZM4.33335 5.00004C4.02393 5.00004 3.72719 5.12296 3.5084 5.34175C3.2896 5.56054 3.16669 5.85729 3.16669 6.16671C3.16669 6.47613 3.2896 6.77287 3.5084 6.99167C3.72719 7.21046 4.02393 7.33337 4.33335 7.33337C4.64277 7.33337 4.93952 7.21046 5.15831 6.99167C5.3771 6.77287 5.50002 6.47613 5.50002 6.16671C5.50002 5.85729 5.3771 5.56054 5.15831 5.34175C4.93952 5.12296 4.64277 5.00004 4.33335 5.00004Z" stroke="black" stroke-width="1.3" stroke-linecap="round" stroke-linejoin="round"/>
</svg>
