<svg width="16" height="16" viewBox="0 0 16 16" fill="none" xmlns="http://www.w3.org/2000/svg">
<path d="M2.66663 13.3333C2.66663 11.6733 4.00663 10.3333 5.66663 10.3333H7.38863M12.6666 11.292L10.6666 13.292L9.46663 12.092M7.99996 2.66663C7.62788 2.66663 7.25945 2.73991 6.91569 2.8823C6.57193 3.02469 6.25959 3.23339 5.99649 3.49649C5.73339 3.75959 5.52469 4.07193 5.3823 4.41569C5.23991 4.75945 5.16663 5.12788 5.16663 5.49996C5.16663 5.87204 5.23991 6.24047 5.3823 6.58423C5.52469 6.92799 5.73339 7.24033 5.99649 7.50343C6.25959 7.76653 6.57193 7.97523 6.91569 8.11762C7.25945 8.26001 7.62788 8.33329 7.99996 8.33329C8.37204 8.33329 8.74047 8.26001 9.08423 8.11762C9.42799 7.97523 9.74033 7.76653 10.0034 7.50343C10.2665 7.24033 10.4752 6.92799 10.6176 6.58423C10.76 6.24047 10.8333 5.87204 10.8333 5.49996C10.8333 5.12788 10.76 4.75945 10.6176 4.41569C10.4752 4.07193 10.2665 3.75959 10.0034 3.49649C9.74033 3.23339 9.42799 3.02469 9.08423 2.8823C8.74047 2.73991 8.37204 2.66663 7.99996 2.66663Z" stroke="black" stroke-width="1.3" stroke-linecap="round" stroke-linejoin="round"/>
</svg>
