<svg width="16" height="16" viewBox="0 0 16 16" fill="none" xmlns="http://www.w3.org/2000/svg">
<path d="M2.66663 13.3333C2.66663 11.6733 4.00663 10.3333 5.66663 10.3333H7.38863M10.4866 13.18L12.8466 10.82M10.4866 10.82L12.8466 13.18M7.99996 2.66666C7.62788 2.66666 7.25945 2.73994 6.91569 2.88233C6.57193 3.02472 6.25959 3.23342 5.99649 3.49652C5.73339 3.75962 5.52469 4.07196 5.3823 4.41572C5.23991 4.75948 5.16663 5.12791 5.16663 5.49999C5.16663 5.87207 5.23991 6.2405 5.3823 6.58426C5.52469 6.92802 5.73339 7.24036 5.99649 7.50346C6.25959 7.76656 6.57193 7.97526 6.91569 8.11765C7.25945 8.26004 7.62788 8.33332 7.99996 8.33332C8.37204 8.33332 8.74047 8.26004 9.08423 8.11765C9.42799 7.97526 9.74033 7.76656 10.0034 7.50346C10.2665 7.24036 10.4752 6.92802 10.6176 6.58426C10.76 6.2405 10.8333 5.87207 10.8333 5.49999C10.8333 5.12791 10.76 4.75948 10.6176 4.41572C10.4752 4.07196 10.2665 3.75962 10.0034 3.49652C9.74033 3.23342 9.42799 3.02472 9.08423 2.88233C8.74047 2.73994 8.37204 2.66666 7.99996 2.66666Z" stroke="black" stroke-width="1.3" stroke-miterlimit="10" stroke-linecap="round" stroke-linejoin="round"/>
</svg>
