<svg width="16" height="16" viewBox="0 0 16 16" fill="none" xmlns="http://www.w3.org/2000/svg">
<path d="M11.0633 8.74992C10.9233 8.74992 10.81 8.85658 10.81 8.99658C10.81 9.12992 10.9167 9.24658 11.06 9.24325C11.1933 9.24325 11.31 9.12992 11.31 8.99325C11.31 8.85325 11.1967 8.74325 11.0567 8.74325M2 3.33325V12.3333C2 13.0666 2.59667 13.6666 3.33333 13.6666H12.6667C13.4 13.6666 14 13.0666 14 12.3333V5.66659C14 4.92659 13.4 4.33325 12.6667 4.33325H3C2.44667 4.33325 2 3.87992 2 3.33325ZM2 3.33325C2 2.77992 2.44667 2.33325 3 2.33325H11.3333" stroke="black" stroke-width="1.3" stroke-linecap="round" stroke-linejoin="round"/>
</svg>
