<svg width="16" height="16" viewBox="0 0 16 16" fill="none" xmlns="http://www.w3.org/2000/svg">
<path d="M3.58667 12.08L2.33333 13.3333M2 7.33329V4.33329C2 3.40663 2.74 2.66663 3.66667 2.66663H11.6667C12.5867 2.66663 13.3333 3.40663 13.3333 4.33329V6.33329M13.3333 6.33329L12.3333 6.33329C11.4067 6.33329 10.6667 7.07329 10.6667 7.99996C10.6667 8.91996 11.4067 9.66663 12.3333 9.66663H13.3333M13.3333 6.33329C13.7 6.33329 14 6.62663 14 6.99996V8.99996C14 9.36663 13.7 9.66663 13.3333 9.66663M13.3333 9.66663V11.6666C13.3333 12.5866 12.5867 13.3333 11.6667 13.3333H8.66667M5 8.66663C4.46957 8.66663 3.96086 8.87734 3.58579 9.25241C3.21071 9.62749 3 10.1362 3 10.6666C3 11.1971 3.21071 11.7058 3.58579 12.0808C3.96086 12.4559 4.46957 12.6666 5 12.6666C5.53043 12.6666 6.03914 12.4559 6.41421 12.0808C6.78929 11.7058 7 11.1971 7 10.6666C7 10.1362 6.78929 9.62749 6.41421 9.25241C6.03914 8.87734 5.53043 8.66663 5 8.66663Z" stroke="black" stroke-width="1.3" stroke-linecap="round" stroke-linejoin="round"/>
</svg>
