<svg width="16" height="16" viewBox="0 0 16 16" fill="none" xmlns="http://www.w3.org/2000/svg">
<path fill-rule="evenodd" clip-rule="evenodd" d="M9.77291 2.50564C8.98343 1.11762 6.98413 1.11381 6.19832 2.50662L6.19759 2.50793L1.09986 11.4411C0.3156 12.8131 1.30617 14.5207 2.88656 14.5207H13.0992C14.6752 14.5207 15.6713 12.8088 14.8865 11.441L9.77291 2.50564ZM8.50014 6.25336C8.50014 5.97721 8.27628 5.75336 8.00014 5.75336C7.72399 5.75336 7.50014 5.97721 7.50014 6.25336V8.74669C7.50014 9.02283 7.72399 9.24669 8.00014 9.24669C8.27628 9.24669 8.50014 9.02283 8.50014 8.74669V6.25336ZM7.99347 10.25L7.99009 10.25L7.9868 10.25C7.9729 10.25 7.95913 10.2506 7.94552 10.2517C7.59861 10.2761 7.3268 10.5633 7.3268 10.9167C7.3268 11.2665 7.61117 11.5834 7.99347 11.5834C8.19023 11.5834 8.35408 11.4949 8.46286 11.3861C8.57163 11.2773 8.66014 11.1135 8.66014 10.9167C8.66014 10.5435 8.36521 10.2799 8.04248 10.2524C8.02635 10.2508 8.01 10.25 7.99347 10.25Z" fill="black"/>
</svg>
